<?xml version="1.0" encoding="utf-8"?>
<!-- Generator: Adobe Illustrator 17.1.0, SVG Export Plug-In . SVG Version: 6.00 Build 0)  -->
<!DOCTYPE svg PUBLIC "-//W3C//DTD SVG 1.1//EN" "http://www.w3.org/Graphics/SVG/1.1/DTD/svg11.dtd">
<svg version="1.1" xmlns="http://www.w3.org/2000/svg" xmlns:xlink="http://www.w3.org/1999/xlink" x="0px" y="0px"
	 viewBox="0 0 300 78.1" enable-background="new 0 0 300 78.1" xml:space="preserve">
<g id="Layer_1">
	<g>
		<path fill="#7BC6C6" d="M29.6,73.2c0,0.2,0,0.4,0,0.6c-0.5-0.2-0.9-0.4-1.3-0.7l-21.7-15l1-29l14.2,0.5l-0.7,21.2l15.3,10.6
			c0.7,0.5,1.3,1.1,1.7,1.8l0,0C33.4,64.2,29.8,68.2,29.6,73.2z"/>
		<path fill="#F2917E" d="M58.3,55.4c0,0.2,0.1,0.4,0.1,0.5c-0.5-0.1-0.9-0.2-1.4-0.4l-24.4-9.9l-5.4-28.5l13.9-2.7l4,20.9l17.2,7
			c0.8,0.3,1.5,0.8,2,1.4v0C60,45.8,57.4,50.5,58.3,55.4z"/>
		<g>
			<g>
				<path fill="#F15F30" d="M66.5,45.1c0-0.1-0.1-0.2-0.1-0.3c0,0,0,0,0,0c0-0.1-0.1-0.2-0.1-0.3c-0.1-0.2-0.2-0.4-0.3-0.6
					c-0.1-0.1-0.1-0.2-0.2-0.3c-0.1-0.1-0.1-0.2-0.2-0.3c-0.8-1.1-1.9-2-3.1-2.5l-15.8-6.4L41.1,5.2c-0.4-2.1-2.5-3.6-4.6-3.2
					l-9.3,1.8c-2.1,0.4-3.6,2.5-3.2,4.6l7.4,38.6l24.6,10c0.9,0.3,1.8,0.5,2.7,0.5c0.1,0,0.2,0,0.3,0c0.1,0,0.2,0,0.3,0
					c0.2,0,0.4,0,0.6-0.1c0,0,0,0,0,0l0,0c0.1,0,0.2,0,0.3-0.1c0.1,0,0.2-0.1,0.3-0.1c2.2-0.6,3.9-2.1,4.8-4.2l1.1-2.8
					C67.1,48.6,67.1,46.8,66.5,45.1z M27.3,16.4L27,14.9l13.5-2.6l0.3,1.4 M26.7,13.2l-0.3-1.4L40,9.1l0.3,1.4L26.7,13.2z M27.4,5.6
					l9.3-1.8c1.2-0.2,2.3,0.5,2.5,1.7l0.3,1.8L26.1,9.9l-0.3-1.8C25.5,7,26.3,5.9,27.4,5.6z M57.8,55.2c0,0.2,0.1,0.4,0.1,0.5
					c-0.5-0.1-0.9-0.2-1.4-0.3l-23.7-9.6l-5.3-27.6l13.5-2.6L45,35.8l16.7,6.8c0.8,0.3,1.4,0.8,2,1.4v0
					C59.5,45.9,56.9,50.5,57.8,55.2z M64.8,49.6l-1.1,2.8c-0.7,1.6-2.1,2.8-3.8,3.2c-0.1-0.3-0.1-0.5-0.2-0.8
					c-0.8-4,1.5-7.8,5.1-9.3C65.3,46.9,65.3,48.3,64.8,49.6z"/>
			</g>
			<g>
				<g>
					<path fill="#39BFC2" d="M39.7,64.7c0-0.1,0-0.2,0-0.3c0,0,0,0,0,0c0-0.1,0-0.2-0.1-0.3c0-0.2-0.1-0.4-0.2-0.6
						c0-0.1-0.1-0.2-0.1-0.3c0-0.1-0.1-0.2-0.1-0.3c-0.5-1.3-1.4-2.3-2.5-3.1l-14-9.8L24,20.1c0.1-2.2-1.6-4-3.8-4.1l-9.5-0.4
						c-2.2-0.1-4,1.6-4.1,3.8L5,58.7L26.7,74c0.8,0.5,1.6,0.9,2.5,1.1c0.1,0,0.2,0.1,0.3,0.1c0.1,0,0.2,0,0.3,0
						c0.2,0,0.4,0.1,0.6,0.1c0,0,0,0,0,0c0,0,0,0,0,0c0.1,0,0.2,0,0.3,0c0.1,0,0.2,0,0.3,0c2.2-0.1,4.3-1.2,5.6-3l1.7-2.5
						C39.6,68.3,40,66.5,39.7,64.7z M8,27.9l0.1-1.5L21.9,27l-0.1,1.5 M8.2,24.6l0.1-1.5L22,23.7l-0.1,1.5L8.2,24.6z M20.1,17.8
						c1.2,0,2.1,1,2.1,2.2l-0.1,1.8L8.3,21.3l0.1-1.8c0-1.2,1-2.1,2.2-2.1 M29,72.6c0,0.2,0,0.4,0,0.5c-0.4-0.2-0.9-0.4-1.2-0.6
						L6.9,57.8L8,29.7l13.8,0.5l-0.8,20.6l14.8,10.4c0.7,0.5,1.2,1.1,1.6,1.8l0,0C32.8,63.9,29.2,67.8,29,72.6z M37,68.7l-1.7,2.5
						c-1,1.4-2.7,2.3-4.4,2.3c0-0.3,0-0.5,0-0.8c0.2-4,3.2-7.3,7.1-7.9C38.1,66.2,37.8,67.6,37,68.7z"/>
				</g>
			</g>
		</g>
	</g>
	<g>
		<rect x="79.3" y="7" fill="none" width="232" height="98.9"/>
		<text transform="matrix(1 0 0 1 79.2642 33.5611)"><tspan x="0" y="0" fill="#39BFC2" font-family="'Intro'" font-size="38" letter-spacing="-1">sho</tspan><tspan x="79.7" y="0" fill="#39BFC2" font-family="'Intro'" font-size="38" letter-spacing="-2">u</tspan><tspan x="104.9" y="0" fill="#39BFC2" font-family="'Intro'" font-size="38" letter-spacing="-1">lda  </tspan><tspan x="0" y="37" fill="#39BFC2" font-family="'Intro'" font-size="38" letter-spacing="-1">m</tspan><tspan x="31.1" y="37" fill="#39BFC2" font-family="'Intro'" font-size="38" letter-spacing="-2">a</tspan><tspan x="55.4" y="37" fill="#39BFC2" font-family="'Intro'" font-size="38" letter-spacing="-2">t</tspan><tspan x="74.7" y="37" fill="#39BFC2" font-family="'Intro'" font-size="38" letter-spacing="-1">chers</tspan></text>
	</g>
</g>
<g id="Layer_2" display="none">
</g>
</svg>
