<?xml version="1.0" encoding="utf-8"?>
<!-- Generator: Adobe Illustrator 17.1.0, SVG Export Plug-In . SVG Version: 6.00 Build 0)  -->
<!DOCTYPE svg PUBLIC "-//W3C//DTD SVG 1.1//EN" "http://www.w3.org/Graphics/SVG/1.1/DTD/svg11.dtd">
<svg version="1.1" xmlns="http://www.w3.org/2000/svg" xmlns:xlink="http://www.w3.org/1999/xlink" x="0px" y="0px"
	 viewBox="0 0 300 78.1" enable-background="new 0 0 300 78.1" xml:space="preserve">
<g id="Layer_1">
	<g>
		<g>
			<g>
				<path fill="#F15F30" d="M29.2,67.5c0-0.1,0.1-0.2,0.1-0.3c0,0,0,0,0,0c0-0.1,0.1-0.2,0.1-0.3c0.1-0.2,0.2-0.4,0.2-0.7
					c0-0.1,0.1-0.2,0.1-0.3c0-0.1,0-0.2,0.1-0.3c0.3-1.5,0.1-3-0.4-4.4l-7-17.2l18.7-26.6c1.4-2,0.9-4.7-1.1-6l-8.5-6
					c-2-1.4-4.7-0.9-6,1.1L0.9,41.5l10.9,26.9c0.4,0.9,0.9,1.8,1.6,2.5c0.1,0.1,0.2,0.2,0.3,0.3c0.1,0.1,0.2,0.2,0.3,0.2
					c0.2,0.2,0.4,0.3,0.5,0.4c0,0,0,0,0,0l0,0c0.1,0.1,0.2,0.1,0.3,0.2c0.1,0.1,0.2,0.1,0.3,0.2c2.1,1.2,4.7,1.5,7,0.5l3-1.2
					C26.9,70.7,28.4,69.3,29.2,67.5z M21.9,15l0.9-1.3l12.3,8.6l-0.9,1.3 M24,12l0.9-1.3l12.3,8.6l-0.9,1.3L24,12z M30.4,6.9l8.5,6
					c1.1,0.7,1.3,2.2,0.6,3.2l-1.1,1.6L26.1,9.1l1.1-1.6C27.9,6.4,29.4,6.2,30.4,6.9z M14.7,68.4c-0.1,0.2-0.2,0.3-0.3,0.5
					c-0.3-0.4-0.6-0.8-0.8-1.3L3.1,41.7l17.6-25.1l12.3,8.6L20.2,43.6l7.4,18.3c0.3,0.8,0.5,1.7,0.4,2.6l0,0
					C23.3,62.6,17.8,64.1,14.7,68.4z M24.3,69.6l-3,1.2c-1.8,0.7-3.8,0.5-5.4-0.5c0.1-0.2,0.3-0.5,0.5-0.7c2.5-3.6,7.3-4.8,11.1-3.1
					C26.9,67.9,25.8,69,24.3,69.6z"/>
			</g>
			<g>
				<g>
					<path fill="#39BFC2" d="M71.1,62.9c0-0.1,0-0.2,0-0.3c0,0,0,0,0,0c0-0.1,0-0.2,0-0.3c0-0.2,0-0.5,0-0.7c0-0.1,0-0.2,0-0.3
						c0-0.1,0-0.2,0-0.4c-0.2-1.5-0.9-2.8-1.8-4l-12.3-14l9-31.3c0.7-2.3-0.7-4.7-3-5.4l-10-2.9c-2.3-0.7-4.7,0.7-5.4,3L35.7,47.6
						l19.1,21.8c0.7,0.8,1.5,1.4,2.4,1.8c0.1,0.1,0.2,0.1,0.3,0.2c0.1,0,0.2,0.1,0.3,0.1c0.2,0.1,0.4,0.2,0.7,0.2c0,0,0,0,0,0
						c0,0,0,0,0,0c0.1,0,0.2,0,0.3,0.1c0.1,0,0.2,0.1,0.3,0.1c2.4,0.5,4.9-0.1,6.7-1.8l2.5-2.2C69.9,66.7,70.8,64.9,71.1,62.9z
						 M47,15.6l0.4-1.5l14.5,4.1l-0.4,1.5 M48,12.2l0.4-1.5l14.5,4.1l-0.4,1.5L48,12.2z M62.3,8.1c1.2,0.4,2,1.6,1.6,2.9l-0.5,1.9
						L48.9,8.7l0.5-1.9c0.4-1.2,1.6-2,2.9-1.6 M57.6,68.5c-0.1,0.2-0.1,0.4-0.1,0.6c-0.4-0.3-0.8-0.6-1.2-1L38,47.1l8.5-29.5
						l14.5,4.1l-6.2,21.6l13,14.8c0.6,0.7,1,1.5,1.2,2.3l0,0C63.9,60.2,59.1,63.4,57.6,68.5z M67.1,66.5l-2.5,2.2
						c-1.5,1.3-3.4,1.7-5.3,1.3c0.1-0.3,0.1-0.6,0.2-0.8c1.2-4.2,5.3-6.9,9.5-6.5C69,64,68.3,65.4,67.1,66.5z"/>
				</g>
			</g>
		</g>
		<g>
			<rect x="92.3" y="7" fill="none" width="232" height="98.9"/>
			<text transform="matrix(1 0 0 1 92.2642 33.5611)"><tspan x="0" y="0" fill="#39BFC2" font-family="'Intro'" font-size="38" letter-spacing="-1">sho</tspan><tspan x="79.7" y="0" fill="#39BFC2" font-family="'Intro'" font-size="38" letter-spacing="-2">u</tspan><tspan x="104.9" y="0" fill="#39BFC2" font-family="'Intro'" font-size="38" letter-spacing="-1">lda  </tspan><tspan x="0" y="37" fill="#39BFC2" font-family="'Intro'" font-size="38" letter-spacing="-1">m</tspan><tspan x="31.1" y="37" fill="#39BFC2" font-family="'Intro'" font-size="38" letter-spacing="-2">a</tspan><tspan x="55.4" y="37" fill="#39BFC2" font-family="'Intro'" font-size="38" letter-spacing="-2">t</tspan><tspan x="74.7" y="37" fill="#39BFC2" font-family="'Intro'" font-size="38" letter-spacing="-1">chers</tspan></text>
		</g>
	</g>
</g>
<g id="Layer_2" display="none">
</g>
</svg>
