<?xml version="1.0" encoding="utf-8"?>
<!-- Generator: Adobe Illustrator 18.0.0, SVG Export Plug-In . SVG Version: 6.00 Build 0)  -->
<!DOCTYPE svg PUBLIC "-//W3C//DTD SVG 1.1//EN" "http://www.w3.org/Graphics/SVG/1.1/DTD/svg11.dtd">
<svg version="1.1" xmlns="http://www.w3.org/2000/svg" xmlns:xlink="http://www.w3.org/1999/xlink" x="0px" y="0px"
	 viewBox="0 0 319 85" enable-background="new 0 0 319 85" xml:space="preserve">
<g id="Layer_1">
	<g>
		<rect x="88.7" y="6.6" fill="none" width="232" height="98.9"/>
		<text transform="matrix(1 0 0 1 88.6875 31.7354)"><tspan x="0" y="0" fill="#939598" font-family="'RobotoSlab-Light'" font-size="33" letter-spacing="-1">sho</tspan><tspan x="51.9" y="0" fill="#939598" font-family="'RobotoSlab-Light'" font-size="33" letter-spacing="-1">u</tspan><tspan x="69.9" y="0" fill="#939598" font-family="'RobotoSlab-Light'" font-size="33" letter-spacing="-1">lda</tspan><tspan x="113.4" y="0" fill="#939598" font-family="'OpenSans'" font-size="29" letter-spacing="-1">  </tspan><tspan x="0" y="45" fill="#39BFC2" font-family="'RobotoSlab-Light'" font-size="56" letter-spacing="-2">m</tspan><tspan x="51.3" y="45" fill="#39BFC2" font-family="'RobotoSlab-Light'" font-size="56" letter-spacing="-4">a</tspan><tspan x="77.7" y="45" fill="#39BFC2" font-family="'RobotoSlab-Light'" font-size="56" letter-spacing="-4">t</tspan><tspan x="93.5" y="45" fill="#39BFC2" font-family="'RobotoSlab-Light'" font-size="56" letter-spacing="-2">c</tspan><tspan x="120.5" y="45" fill="#39BFC2" font-family="'RobotoSlab-Light'" font-size="56" letter-spacing="-3">h</tspan><tspan x="152.4" y="45" fill="#39BFC2" font-family="'RobotoSlab-Light'" font-size="56" letter-spacing="-2">ers</tspan></text>
	</g>
	<g>
		<g>
			<path fill="#F15F30" d="M34.5,72.9c0-0.1,0.1-0.2,0.1-0.3c0,0,0,0,0,0c0-0.1,0.1-0.2,0.1-0.3c0.1-0.2,0.1-0.5,0.2-0.7
				c0-0.1,0-0.2,0.1-0.3c0-0.1,0-0.2,0-0.4c0.2-1.5-0.1-3-0.7-4.4l-8.2-17l17.2-28.2c1.3-2.1,0.6-4.8-1.5-6l-9-5.5
				c-2.1-1.3-4.8-0.6-6,1.5L4.1,48.4l12.8,26.5c0.4,0.9,1.1,1.7,1.8,2.4c0.1,0.1,0.2,0.2,0.3,0.2c0.1,0.1,0.2,0.1,0.3,0.2
				c0.2,0.1,0.4,0.3,0.6,0.4c0,0,0,0,0,0l0,0c0.1,0.1,0.2,0.1,0.3,0.1c0.1,0.1,0.2,0.1,0.3,0.2c2.2,1.1,4.8,1.2,7.1,0.1l3-1.4
				C32.4,76.2,33.7,74.7,34.5,72.9z M23.7,20.2l0.8-1.4l13,7.9l-0.8,1.4 M25.6,17.1l0.8-1.4l13,7.9L38.6,25L25.6,17.1z M31.8,11.5
				l9,5.5c1.1,0.7,1.5,2.1,0.8,3.2l-1,1.7l-13-7.9l1-1.7C29.2,11.1,30.6,10.8,31.8,11.5z M22.6,21.9l13,7.9L23.7,49.3l8.7,18
				c0.4,0.8,0.6,1.7,0.6,2.6l0,0c-4.9-1.6-10.4,0.2-13.2,4.8c-0.1,0.2-0.2,0.4-0.3,0.5c-0.3-0.4-0.6-0.8-0.9-1.3L6.4,48.5
				 M29.7,75.3l-3,1.4c-1.8,0.9-3.8,0.8-5.5-0.2c0.1-0.3,0.3-0.5,0.4-0.8c2.3-3.8,7-5.3,11.1-3.8C32.1,73.4,31.1,74.6,29.7,75.3z"/>
		</g>
		<g>
			<g>
				<path fill="#39BFC2" d="M76.5,65.5c0-0.1,0-0.2,0-0.3c0,0,0,0,0,0c0-0.1,0-0.2,0-0.3c0-0.2,0-0.5-0.1-0.7c0-0.1,0-0.2-0.1-0.4
					c0-0.1,0-0.2-0.1-0.4c-0.3-1.5-1-2.8-2.1-3.9L60.9,46.1l7-32.3c0.5-2.4-1-4.7-3.4-5.2L54.3,6.4c-2.4-0.5-4.7,1-5.2,3.4
					l-9.3,42.5l20.8,20.8c0.7,0.7,1.6,1.3,2.5,1.7c0.1,0,0.2,0.1,0.3,0.1c0.1,0,0.2,0.1,0.3,0.1c0.2,0.1,0.5,0.1,0.7,0.2
					c0,0,0,0,0,0l0,0c0.1,0,0.2,0,0.3,0c0.1,0,0.2,0,0.3,0.1c2.5,0.3,4.9-0.5,6.7-2.2l2.3-2.3C75.6,69.4,76.4,67.5,76.5,65.5z
					 M49,19.2l0.3-1.6l14.9,3.2l-0.3,1.6 M49.8,15.7l0.3-1.6l14.9,3.2l-0.3,1.6L49.8,15.7z M64.1,10.6c1.3,0.3,2.1,1.5,1.8,2.8
					l-0.4,2l-14.9-3.2l0.4-2c0.3-1.3,1.5-2.1,2.8-1.8 M63.3,72c0,0.2-0.1,0.4-0.1,0.6c-0.4-0.3-0.9-0.6-1.2-0.9l-20-20l6.6-30.4
					l14.9,3.2l-4.9,22.3l14.1,14.2c0.6,0.6,1.1,1.4,1.4,2.3l0,0C69,63.2,64.4,66.8,63.3,72z M72.8,69.3l-2.3,2.3
					c-1.4,1.4-3.3,2-5.3,1.6c0-0.3,0.1-0.6,0.1-0.9c1-4.4,4.9-7.3,9.2-7.2C74.5,66.8,73.9,68.2,72.8,69.3z"/>
			</g>
		</g>
	</g>
</g>
<g id="Layer_2" display="none">
</g>
</svg>
