<?xml version="1.0" encoding="utf-8"?>
<!-- Generator: Adobe Illustrator 17.1.0, SVG Export Plug-In . SVG Version: 6.00 Build 0)  -->
<!DOCTYPE svg PUBLIC "-//W3C//DTD SVG 1.1//EN" "http://www.w3.org/Graphics/SVG/1.1/DTD/svg11.dtd">
<svg version="1.1" xmlns="http://www.w3.org/2000/svg" xmlns:xlink="http://www.w3.org/1999/xlink" x="0px" y="0px"
	 viewBox="0 0 300 78.1" enable-background="new 0 0 300 78.1" xml:space="preserve">
<g id="Layer_1">
	<g>
		<g>
			<path fill="#F15F30" d="M30.8,66.6c0-0.1,0.1-0.2,0.1-0.3c0,0,0,0,0,0c0-0.1,0.1-0.2,0.1-0.3c0.1-0.2,0.2-0.4,0.2-0.7
				c0-0.1,0.1-0.2,0.1-0.3c0-0.1,0-0.2,0.1-0.3c0.3-1.4,0.1-2.9-0.4-4.3l-6.9-16.9l18.4-26.2c1.3-1.9,0.9-4.6-1-5.9l-8.3-5.9
				c-1.9-1.3-4.6-0.9-5.9,1L3,41l10.7,26.4c0.4,0.9,0.9,1.8,1.6,2.5c0.1,0.1,0.2,0.2,0.3,0.3c0.1,0.1,0.2,0.2,0.3,0.2
				c0.2,0.1,0.4,0.3,0.5,0.4c0,0,0,0,0,0l0,0c0.1,0.1,0.2,0.1,0.2,0.2c0.1,0.1,0.2,0.1,0.3,0.2c2.1,1.2,4.6,1.4,6.8,0.5l3-1.2
				C28.6,69.7,30,68.3,30.8,66.6z M23.7,15l0.9-1.3l12.1,8.5l-0.9,1.3 M25.7,12.1l0.9-1.3l12.1,8.5l-0.9,1.3L25.7,12.1z M32,7.1
				l8.3,5.9c1,0.7,1.3,2.2,0.6,3.2l-1.1,1.6L27.7,9.3l1.1-1.6C29.6,6.6,31,6.4,32,7.1z M16.6,67.5c-0.1,0.2-0.2,0.3-0.3,0.5
				c-0.3-0.4-0.6-0.8-0.7-1.3L5.2,41.3l17.3-24.7l12.1,8.5L21.9,43.2l7.3,17.9c0.3,0.8,0.5,1.7,0.4,2.6l0,0
				C25,61.8,19.6,63.2,16.6,67.5z M26,68.6l-3,1.2c-1.8,0.7-3.7,0.5-5.3-0.5c0.1-0.2,0.3-0.5,0.5-0.7c2.5-3.5,7.1-4.7,10.9-3
				C28.5,67,27.4,68,26,68.6z"/>
		</g>
		<g>
			<g>
				<path fill="#39BFC2" d="M71.9,62.1c0-0.1,0-0.2,0-0.3c0,0,0,0,0,0c0-0.1,0-0.2,0-0.3c0-0.2,0-0.5,0-0.7c0-0.1,0-0.2,0-0.3
					c0-0.1,0-0.2,0-0.3c-0.2-1.4-0.8-2.8-1.8-3.9L58,42.4l8.8-30.7c0.6-2.3-0.7-4.6-2.9-5.3l-9.8-2.8c-2.3-0.6-4.6,0.7-5.3,2.9
					L37.2,47L56,68.4c0.7,0.8,1.5,1.4,2.3,1.8c0.1,0.1,0.2,0.1,0.3,0.2c0.1,0,0.2,0.1,0.3,0.1c0.2,0.1,0.4,0.2,0.6,0.2c0,0,0,0,0,0
					l0,0c0.1,0,0.2,0,0.3,0.1c0.1,0,0.2,0.1,0.3,0.1c2.4,0.5,4.8-0.1,6.6-1.7l2.4-2.1C70.8,65.8,71.7,64,71.9,62.1z M48.2,15.7
					l0.4-1.5l14.2,4.1l-0.4,1.5 M49.2,12.3l0.4-1.5l14.2,4.1l-0.4,1.5L49.2,12.3z M63.3,8.3c1.2,0.3,1.9,1.6,1.6,2.8L64.4,13
					L50.2,8.9l0.5-1.9c0.3-1.2,1.6-1.9,2.8-1.6 M58.7,67.5c-0.1,0.2-0.1,0.4-0.1,0.6c-0.4-0.3-0.8-0.6-1.1-1l-18-20.6l8.3-29
					l14.2,4.1l-6.1,21.2l12.7,14.5c0.6,0.7,1,1.4,1.2,2.3l0,0C64.8,59.4,60.1,62.6,58.7,67.5z M68,65.6l-2.4,2.1
					c-1.4,1.2-3.3,1.7-5.2,1.2c0.1-0.3,0.1-0.6,0.2-0.8c1.2-4.2,5.2-6.8,9.4-6.4C69.8,63.2,69.1,64.6,68,65.6z"/>
			</g>
		</g>
	</g>
	<g opacity="0.96">
		<text transform="matrix(1 0 0 1 82.5269 57.3641)"><tspan x="0" y="0" fill="#39BFC2" font-family="'Margot-Regular'" font-size="56">s</tspan><tspan x="25.3" y="0" fill="#39BFC2" font-family="'Margot-Regular'" font-size="56" letter-spacing="-3">h</tspan><tspan x="55.8" y="0" fill="#39BFC2" font-family="'Margot-Regular'" font-size="56" letter-spacing="-1">o</tspan><tspan x="86.7" y="0" fill="#39BFC2" font-family="'Margot-Regular'" font-size="56" letter-spacing="-2">u</tspan><tspan x="116.9" y="0" fill="#39BFC2" font-family="'Margot-Regular'" font-size="56" letter-spacing="-1">l</tspan><tspan x="128.6" y="0" fill="#39BFC2" font-family="'Margot-Regular'" font-size="56" letter-spacing="-1">d</tspan><tspan x="160.1" y="0" fill="#39BFC2" font-family="'Margot-Regular'" font-size="56">a </tspan></text>
	</g>
</g>
<g id="Layer_2" display="none">
</g>
</svg>
