<?xml version="1.0" encoding="utf-8"?>
<!-- Generator: Adobe Illustrator 18.0.0, SVG Export Plug-In . SVG Version: 6.00 Build 0)  -->
<!DOCTYPE svg PUBLIC "-//W3C//DTD SVG 1.1//EN" "http://www.w3.org/Graphics/SVG/1.1/DTD/svg11.dtd">
<svg version="1.1" xmlns="http://www.w3.org/2000/svg" xmlns:xlink="http://www.w3.org/1999/xlink" x="0px" y="0px"
	 viewBox="0 0 321.7 78.1" enable-background="new 0 0 321.7 78.1" xml:space="preserve">
<g id="Layer_1">
	<g>
		<path fill="#F2917E" d="M105.4,24.6c0,1.8-0.7,3.1-2,4.1c-1.3,0.9-3.2,1.4-5.7,1.4c-2.6,0-4.7-0.4-6.3-1.2V27c2,1,4.1,1.5,6.3,1.5
			c1.9,0,3.4-0.3,4.4-1c1-0.6,1.5-1.5,1.5-2.6c0-1-0.4-1.8-1.2-2.5c-0.8-0.7-2.1-1.3-3.9-2c-2-0.7-3.3-1.3-4.1-1.8
			c-0.8-0.5-1.4-1.1-1.8-1.7c-0.4-0.6-0.6-1.4-0.6-2.4c0-1.5,0.6-2.6,1.9-3.5c1.2-0.9,3-1.3,5.2-1.3c2.1,0,4.1,0.4,6,1.2l-0.7,1.6
			c-1.9-0.8-3.7-1.2-5.4-1.2c-1.6,0-2.9,0.3-3.8,0.8s-1.4,1.3-1.4,2.2c0,1,0.4,1.8,1.1,2.5c0.7,0.6,2.2,1.3,4.3,2.1
			c1.8,0.6,3.1,1.2,3.9,1.7s1.4,1.1,1.8,1.7S105.4,23.8,105.4,24.6z"/>
		<path fill="#F2917E" d="M122.6,29.8V17c0-2-0.4-3.4-1.2-4.3c-0.8-0.9-2.1-1.3-3.9-1.3c-2.3,0-4.1,0.6-5.2,1.8
			c-1.1,1.2-1.6,3.1-1.6,5.8v10.8h-1.8V1.6h1.8v8.9l-0.1,2.5h0.1c0.7-1.2,1.7-2,2.8-2.6c1.1-0.5,2.5-0.8,4.2-0.8
			c4.5,0,6.7,2.4,6.7,7.2v12.8H122.6z"/>
		<path fill="#F2917E" d="M144.5,19.9c0,3.2-0.8,5.7-2.3,7.5c-1.6,1.8-3.7,2.7-6.4,2.7c-1.7,0-3.2-0.4-4.6-1.2c-1.3-0.8-2.3-2-3-3.6
			c-0.7-1.6-1-3.3-1-5.4c0-3.2,0.8-5.7,2.3-7.5c1.6-1.8,3.7-2.7,6.4-2.7c2.7,0,4.8,0.9,6.4,2.7C143.7,14.3,144.5,16.8,144.5,19.9z
			 M129,19.9c0,2.7,0.6,4.8,1.8,6.3c1.2,1.5,2.9,2.3,5,2.3s3.8-0.8,5-2.3c1.2-1.5,1.8-3.6,1.8-6.3c0-2.7-0.6-4.8-1.8-6.3
			c-1.2-1.5-2.9-2.2-5-2.2s-3.8,0.7-5,2.2C129.5,15.1,129,17.2,129,19.9z"/>
		<path fill="#F2917E" d="M149.9,10.1v12.7c0,2,0.4,3.4,1.2,4.3c0.8,0.9,2.1,1.3,3.9,1.3c2.3,0,4.1-0.6,5.2-1.8
			c1.1-1.2,1.7-3.1,1.7-5.8V10.1h1.8v19.6h-1.5l-0.3-2.7h-0.1c-1.3,2-3.5,3.1-6.8,3.1c-4.5,0-6.7-2.4-6.7-7.2V10.1H149.9z"/>
		<path fill="#F2917E" d="M169.8,29.8H168V1.6h1.8V29.8z"/>
		<path fill="#F2917E" d="M181.5,9.7c1.4,0,2.6,0.3,3.7,0.8c1,0.5,2,1.4,2.8,2.7h0.1c-0.1-1.5-0.1-3-0.1-4.5V1.6h1.8v28.1h-1.2
			l-0.5-3H188c-1.5,2.2-3.6,3.4-6.4,3.4c-2.7,0-4.8-0.8-6.2-2.5s-2.1-4.1-2.1-7.4c0-3.4,0.7-6,2.1-7.8
			C176.8,10.6,178.8,9.7,181.5,9.7z M181.5,11.4c-2.1,0-3.8,0.8-4.8,2.3c-1.1,1.5-1.6,3.7-1.6,6.6c0,5.6,2.2,8.3,6.5,8.3
			c2.2,0,3.8-0.6,4.9-1.9c1-1.3,1.6-3.4,1.6-6.4v-0.3c0-3-0.5-5.2-1.5-6.5C185.5,12,183.8,11.4,181.5,11.4z"/>
		<path fill="#F2917E" d="M206.2,29.8l-0.5-3.1h-0.1c-1,1.3-2,2.2-3,2.7c-1,0.5-2.3,0.8-3.7,0.8c-1.9,0-3.4-0.5-4.5-1.5
			c-1.1-1-1.6-2.4-1.6-4.1c0-1.9,0.8-3.4,2.4-4.5s3.9-1.6,6.9-1.7l3.7-0.1V17c0-1.9-0.4-3.3-1.1-4.2c-0.8-1-2-1.4-3.7-1.4
			c-1.8,0-3.7,0.5-5.7,1.5l-0.7-1.6c2.2-1,4.3-1.5,6.4-1.5c2.2,0,3.8,0.6,4.8,1.7c1.1,1.1,1.6,2.9,1.6,5.2v13.1H206.2z M199,28.5
			c2.1,0,3.7-0.6,5-1.8c1.2-1.2,1.8-2.9,1.8-5v-1.9l-3.4,0.1c-2.8,0.1-4.7,0.6-5.9,1.3c-1.2,0.7-1.8,1.9-1.8,3.4
			c0,1.2,0.4,2.2,1.1,2.9C196.5,28.1,197.6,28.5,199,28.5z"/>
		<path fill="#39BFC2" d="M116.3,58.7c-1.4,2.7-2.8,5.4-4.4,8.2c-0.3,0.5-0.5,1-0.7,1.4c-0.2,0.4-0.5,0.7-0.8,0.9
			c-0.2,0.1-0.5,0.2-0.7,0.2c-0.3,0-0.5,0-0.8,0s-0.6,0-0.8,0c-0.3,0-0.5-0.1-0.7-0.2c-0.3-0.1-0.6-0.4-0.8-0.9
			c-0.2-0.4-0.5-0.9-0.7-1.4c-1.5-2.6-2.9-5.4-4.4-8.2c-1.5-2.8-2.9-5.5-4.4-8V74c0,0.5,0,0.8-0.1,1.1c0,0.2-0.2,0.4-0.3,0.5
			c-0.2,0.1-0.4,0.2-0.7,0.2s-0.7,0-1.3,0c-0.5,0-0.8,0-1.2,0s-0.5-0.1-0.7-0.2c-0.2-0.1-0.3-0.3-0.3-0.5c-0.1-0.2-0.1-0.6-0.1-1
			V42.6h-2.6v-2.4c0.3-0.3,0.7-0.6,1.2-0.8c0.4-0.2,0.9-0.4,1.4-0.6c0.5-0.2,1.2-0.3,1.9-0.3c0.6,0,1.1,0.1,1.4,0.4h0
			c0.4,0.3,0.7,0.7,1.1,1.2s0.6,1.1,0.9,1.6c1.9,3.5,3.7,7,5.7,10.5c1.9,3.5,3.8,7,5.6,10.4c1.8-3.4,3.7-6.9,5.6-10.4
			s3.8-7,5.7-10.5c0.3-0.6,0.6-1.1,0.9-1.6s0.7-0.9,1.1-1.2c0.5-0.3,0.9-0.4,1.5-0.4c0.7,0,1.1,0.1,1.4,0.3c0.3,0.2,0.5,0.5,0.5,0.9
			l0,30.8v2.9h2.6v2.2c-0.6,0.2-1.1,0.3-1.5,0.4c-0.4,0.1-0.9,0.2-1.5,0.2c-0.6,0.1-1.2,0.1-1.8,0c-0.7-0.1-1.3-0.3-1.6-0.6
			c-0.4-0.3-0.6-0.7-0.7-1.1c-0.1-0.4-0.2-0.9-0.2-1.5v-1.7v-0.4V50.7C119.1,53.4,117.7,56.1,116.3,58.7z"/>
		<path fill="#39BFC2" d="M134.6,74.6c-0.3,0.8-0.6,1.3-1,1.3c-0.4,0-1-0.1-1.8-0.3c-0.5-0.2-0.9-0.3-1.2-0.4
			c-0.3-0.1-0.5-0.2-0.6-0.3c-0.1-0.1-0.2-0.3-0.1-0.6s0.1-0.6,0.3-1.1l10.7-32.1c0.1-0.3,0.2-0.7,0.4-1.1c0.2-0.4,0.3-0.6,0.5-0.7
			c0.2-0.1,0.4-0.1,0.7-0.1c0.3,0,0.6,0,0.9,0h2.5c0.4,0,0.7,0,1.1,0c0.4,0,0.7,0.1,1,0.2c0.2,0.1,0.4,0.3,0.5,0.7
			c0.2,0.4,0.3,0.7,0.4,1.1l10.9,32.1h2.7v2.2c0,0-0.4,0.1-1.2,0.4s-1.8,0.3-3,0.2c-0.6-0.1-1.2-0.2-1.7-0.5c-0.5-0.2-0.8-0.5-1-0.9
			c-0.2-0.3-0.4-0.8-0.7-1.6s-0.6-1.6-1-2.6c-0.4-1-0.8-2.1-1.2-3.4c-0.4-1.2-0.9-2.5-1.3-3.9h-12.8L134.6,74.6z M144.8,42.6
			c-0.1,0.5-0.3,1.1-0.6,2c-0.3,0.8-0.6,1.8-0.9,2.8c-0.3,1-0.7,2.1-1.1,3.3c-0.4,1.1-0.7,2.2-1.1,3.3c-0.3,1-0.6,2-0.9,2.9
			c-0.3,0.9-0.4,1.5-0.5,2h10.2c-0.4-1.2-0.7-2.3-1-3.3s-0.6-2.1-1-3.3c-0.4-1.2-0.8-2.5-1.3-4.1C146.1,46.7,145.5,44.9,144.8,42.6z
			"/>
		<path fill="#39BFC2" d="M158.9,43.3c-0.5,0-0.8,0-1.1-0.1s-0.4-0.2-0.5-0.3c-0.1-0.2-0.2-0.4-0.2-0.7c0-0.3,0-0.6,0-1.1
			c0-0.8,0.1-1.3,0.2-1.5c0.1-0.3,0.7-0.4,1.5-0.4h22.7c0.9,0,1.4,0.1,1.5,0.4c0.1,0.3,0.2,0.8,0.2,1.5c0,0.5,0,0.8,0,1.1
			c0,0.3-0.1,0.5-0.2,0.7c-0.1,0.2-0.3,0.3-0.5,0.3s-0.6,0.1-1.1,0.1h-9.2V74c0,0.5,0,0.8-0.1,1.1c0,0.2-0.2,0.4-0.3,0.5
			c-0.2,0.1-0.4,0.2-0.7,0.2s-0.7,0-1.3,0c-0.5,0-0.8,0-1.2,0c-0.3,0-0.5-0.1-0.7-0.2c-0.2-0.1-0.3-0.3-0.3-0.5
			c-0.1-0.2-0.1-0.6-0.1-1V43.3H158.9z"/>
		<path fill="#39BFC2" d="M195.6,71.7c1.8,0,3.4-0.1,4.8-0.3s2.7-0.5,3.8-0.9c0.7-0.2,1.2-0.4,1.5-0.5c0.4-0.1,0.7-0.2,0.9-0.2
			c0.2,0,0.4,0.2,0.6,0.4c0.2,0.3,0.4,0.7,0.6,1.3c0.2,0.7,0.4,1.2,0.4,1.6c0,0.4-0.2,0.8-0.5,1c-0.4,0.3-1,0.5-1.7,0.7
			c-0.8,0.2-1.8,0.4-3.1,0.7c-1,0.2-2,0.3-2.9,0.4c-0.9,0.1-1.7,0.1-2.5,0.1c-2.5,0.1-4.8-0.3-6.6-1.2s-3.3-2.1-4.4-3.8
			c-1.1-1.7-2-3.7-2.6-5.9c-0.7-2.3-1-4.8-0.9-7.7c0.1-4.1,0.9-7.7,2.4-10.7c1.6-3,3.7-5.2,6.6-6.7c2-1,4.2-1.5,6.6-1.4
			c2.4,0.1,4.7,0.5,7,1.3c0.7,0.2,1.2,0.4,1.7,0.5c0.4,0.1,0.7,0.3,0.9,0.5c0.2,0.2,0.3,0.4,0.2,0.7c0,0.3-0.2,0.7-0.4,1.2
			c-0.3,0.8-0.5,1.3-0.7,1.6s-0.4,0.5-0.6,0.5c-0.2,0-0.5,0-0.9-0.1c-0.4-0.1-0.9-0.3-1.5-0.5c-1.2-0.4-2.2-0.6-3.2-0.8
			c-0.9-0.2-1.8-0.3-2.5-0.4c-0.7-0.1-1.4,0-2.1,0.1c-0.7,0.1-1.5,0.4-2.2,0.8c-1.5,0.7-2.7,1.8-3.7,3.3c-1,1.5-1.7,3.2-2.1,4.9
			c-0.5,1.7-0.7,4.1-0.6,7.2c0,3.1,0.7,5.9,2,8.4c0.7,1.2,1.5,2.2,2.4,2.8S194.3,71.7,195.6,71.7z"/>
		<path fill="#39BFC2" d="M216.4,75c0,0.2-0.2,0.4-0.3,0.5c-0.2,0.1-0.4,0.2-0.7,0.2c-0.3,0-0.7,0-1.3,0c-0.5,0-0.8,0-1.2,0
			s-0.5-0.1-0.7-0.2c-0.2-0.1-0.3-0.3-0.3-0.5c-0.1-0.2-0.1-0.6-0.1-1V41c0-0.4,0-0.8,0.1-1c0.1-0.2,0.2-0.4,0.3-0.5
			c0.2-0.1,0.4-0.2,0.7-0.2s0.7,0,1.2,0c0.6,0,1,0,1.3,0c0.3,0,0.5,0.1,0.7,0.2c0.2,0.1,0.3,0.3,0.3,0.5c0,0.2,0.1,0.6,0.1,1.1v13.9
			H232V41c0-0.4,0-0.8,0.1-1c0.1-0.2,0.2-0.4,0.3-0.5c0.2-0.1,0.4-0.2,0.7-0.2s0.7,0,1.2,0c0.6,0,1,0,1.3,0c0.3,0,0.5,0.1,0.7,0.2
			c0.2,0.1,0.3,0.3,0.3,0.5c0,0.2,0.1,0.6,0.1,1.1v33c0,0.5,0,0.8-0.1,1.1c0,0.2-0.2,0.4-0.3,0.5c-0.2,0.1-0.4,0.2-0.7,0.2
			c-0.3,0-0.7,0-1.3,0c-0.5,0-0.8,0-1.2,0s-0.5-0.1-0.7-0.2c-0.2-0.1-0.3-0.3-0.3-0.5c-0.1-0.2-0.1-0.6-0.1-1V59.3h-15.6V74
			C216.4,74.4,216.4,74.8,216.4,75z"/>
		<path fill="#39BFC2" d="M248.4,75c-1.5-0.5-2.6-1.2-3.5-2.1c-0.9-0.9-1.5-1.9-1.9-3.1c-0.4-1.2-0.6-2.4-0.6-3.7V42.6v0
			c-1.6-0.2-2.5-0.6-2.6-1.1v-2.4h22.9c0.9,0,1.4,0.1,1.5,0.4c0.1,0.3,0.2,0.8,0.2,1.5c0,0.5,0,0.8,0,1.2c0,0.3-0.1,0.6-0.2,0.8
			c-0.1,0.2-0.3,0.3-0.5,0.4c-0.2,0.1-0.6,0.1-1.1,0.1h-15.6v11.2h13c0.9,0,1.4,0.2,1.5,0.5c0.1,0.3,0.2,0.8,0.2,1.6
			c0,0.5,0,0.8,0,1.2c0,0.3-0.1,0.6-0.2,0.8c-0.1,0.2-0.3,0.3-0.5,0.4c-0.2,0.1-0.6,0.1-1.1,0.1h-13v6.8c0,1.1,0.2,2,0.6,2.7
			c0.4,0.7,1,1.2,1.7,1.6c0.7,0.4,1.5,0.7,2.5,0.8c0.9,0.1,2,0.2,3.1,0.2h7.7c0.9,0,1.4,0.1,1.5,0.4c0.1,0.3,0.2,0.8,0.2,1.5
			c0,0.5,0,0.8,0,1.2c0,0.3-0.1,0.6-0.2,0.8s-0.3,0.3-0.5,0.4c-0.2,0.1-0.6,0.1-1.1,0.1h-8.9C251.7,75.8,249.9,75.5,248.4,75z"/>
		<path fill="#39BFC2" d="M286.8,60.8c0.5,1.2,1,2.5,1.5,3.8c0.5,1.4,1.1,2.6,1.5,3.8c0.5,1.2,0.9,2.2,1.3,3.1
			c0.4,0.9,0.7,1.5,0.8,1.7h2.7v2.2c0,0-0.4,0.1-1.2,0.4s-1.8,0.3-3,0.2c-0.6-0.1-1.2-0.2-1.8-0.5s-1-0.5-1.1-0.9
			c-0.1-0.2-0.4-0.8-0.8-1.7c-0.4-0.9-0.9-2-1.4-3.3c-0.5-1.3-1.1-2.7-1.7-4.1s-1.2-2.9-1.7-4.2h-0.7c-1.4,0-2.6,0-3.5-0.1
			c-0.9-0.1-1.5-0.2-1.9-0.2c-0.8-0.2-1.6-0.6-2.2-1.3V74c0,0.5,0,0.8-0.1,1.1c0,0.2-0.2,0.4-0.3,0.5c-0.2,0.1-0.4,0.2-0.7,0.2
			s-0.7,0-1.3,0c-0.5,0-0.8,0-1.2,0s-0.5-0.1-0.7-0.2c-0.2-0.1-0.3-0.3-0.3-0.5c-0.1-0.2-0.1-0.6-0.1-1V42.6
			c-1.6-0.2-2.5-0.6-2.6-1.1v-2.4h16c3.7,0,6.4,0.8,8.1,2.4c1.7,1.6,2.6,4.1,2.6,7.4v2.8C293,56.7,290.9,59.6,286.8,60.8z
			 M281.9,56.9c2,0,3.6-0.5,4.6-1.5c1-1,1.6-2.4,1.6-4.3v-1.8c0-1.9-0.5-3.3-1.5-4.3c-1-1-2.6-1.5-4.6-1.5h-8.3v12.7
			c0.9,0.2,1.9,0.4,2.8,0.5s1.9,0.2,2.9,0.2H281.9z"/>
		<path fill="#39BFC2" d="M307.7,43.3c-2.6-0.2-4.5,0.4-5.7,1.9c-1.1,1.4-1.6,3.1-1.3,5.1c0.3,2,2.5,3.3,6.9,4.1
			c4.3,0.8,7.1,1.5,8.3,2.2c1.2,0.8,2.2,1.7,2.8,2.9c0.6,1.2,0.9,3,0.9,5.3c0,1.2-0.1,2.2-0.2,3.1c-0.1,0.9-0.2,1.7-0.4,2.4
			c-0.2,0.7-0.5,1.3-0.8,1.8c-0.4,0.5-0.8,1.1-1.4,1.5c-1.1,0.9-2.5,1.6-4.2,2c-0.9,0.2-1.8,0.4-2.7,0.5c-1,0.1-2,0.2-3.1,0.1
			c-1.1,0-2.4-0.2-3.7-0.4c-1.3-0.2-2.8-0.6-4.3-1c-0.7-0.2-1.2-0.4-1.7-0.5c-0.4-0.1-0.7-0.3-0.9-0.5c-0.2-0.2-0.3-0.4-0.2-0.7
			c0-0.3,0.1-0.7,0.3-1.2c0.3-0.7,0.5-1.2,0.8-1.6c0.2-0.3,0.5-0.5,0.8-0.5s0.7,0,1.2,0.2c0.5,0.2,1.1,0.4,2,0.7
			c2.3,0.8,4.6,1.1,6.9,1.1c1.5,0,2.8-0.2,3.8-0.5c1-0.3,1.7-0.7,2.2-1.3c0.9-1.1,1.4-2.5,1.5-4.3c0-1.8-0.1-3-0.4-3.6
			c-0.3-0.6-1-1.1-2.1-1.5c-1.1-0.4-2.8-0.9-5.3-1.4c-1.2-0.3-2.3-0.5-3.2-0.7c-0.9-0.2-1.7-0.4-2.4-0.7c-1.3-0.5-2.4-1.1-3.3-1.8
			c-0.9-0.8-1.6-1.7-1.9-2.8c-0.2-0.6-0.3-1.3-0.3-2.1c0-0.9,0-1.9,0.1-3.1c0.2-2.3,1.3-4.4,3.1-6.3c1.9-1.8,4.7-2.7,8.5-2.7
			c2.8,0.1,5.5,0.4,8.2,1l1.2,0.3c0.7,0.2,1,0.5,1,0.9c0,0.4-0.1,1-0.3,1.8c-0.2,0.5-0.3,0.9-0.3,1.2c0,0.3-0.1,0.5-0.3,0.5
			c-0.1,0.1-0.4,0.1-0.7,0c-0.3-0.1-0.8-0.2-1.4-0.3c-0.8-0.2-1.9-0.4-3.2-0.6S309.4,43.4,307.7,43.3z"/>
	</g>
	<g>
		<g>
			<path fill="#F15F30" d="M34.1,70.8c0.1-0.1,0.1-0.2,0.2-0.3c0,0,0,0,0,0c0-0.1,0.1-0.2,0.1-0.4c0.1-0.2,0.2-0.5,0.2-0.7
				c0-0.1,0.1-0.2,0.1-0.4c0-0.1,0.1-0.3,0.1-0.4c0.3-1.6,0.1-3.3-0.5-4.8l-7.7-19l20.6-29.3c1.5-2.1,1-5.1-1.2-6.6l-9.3-6.6
				c-2.1-1.5-5.1-1-6.6,1.2L2.9,42.2l12,29.6c0.4,1,1,2,1.8,2.8c0.1,0.1,0.2,0.2,0.3,0.3c0.1,0.1,0.2,0.2,0.3,0.3
				c0.2,0.2,0.4,0.3,0.6,0.5c0,0,0,0,0,0l0,0c0.1,0.1,0.2,0.1,0.3,0.2c0.1,0.1,0.2,0.1,0.3,0.2c2.3,1.4,5.1,1.6,7.7,0.6l3.3-1.4
				C31.6,74.3,33.2,72.8,34.1,70.8z M26.1,13l1-1.4l13.5,9.5l-1,1.4 M28.4,9.8l1-1.4l13.5,9.5l-1,1.4L28.4,9.8z M35.5,4.1l9.3,6.6
				c1.2,0.8,1.4,2.4,0.6,3.6L44.2,16L30.7,6.5l1.3-1.8C32.7,3.6,34.3,3.3,35.5,4.1z M24.9,14.8l13.5,9.5L24.2,44.6l8.2,20.1
				c0.4,0.9,0.5,1.9,0.5,2.9l0,0c-5.1-2.1-11.3-0.5-14.6,4.3c-0.1,0.2-0.2,0.4-0.3,0.6c-0.3-0.4-0.6-0.9-0.8-1.5L5.4,42.4
				 M28.8,73.1l-3.3,1.4c-2,0.8-4.2,0.6-6-0.6c0.2-0.3,0.3-0.5,0.5-0.8c2.8-4,8-5.3,12.3-3.4C31.6,71.2,30.3,72.5,28.8,73.1z"/>
		</g>
		<g>
			<g>
				<path fill="#39BFC2" d="M80.2,65.7c0-0.1,0-0.2,0-0.4c0,0,0,0,0,0c0-0.1,0-0.3,0-0.4c0-0.3,0-0.5,0-0.8c0-0.1,0-0.3,0-0.4
					c0-0.1,0-0.3-0.1-0.4c-0.2-1.6-0.9-3.1-2-4.4L64.6,43.7l9.9-34.5c0.7-2.5-0.7-5.2-3.3-5.9l-11-3.1c-2.5-0.7-5.2,0.7-5.9,3.3
					l-13,45.4l21,24c0.7,0.8,1.6,1.5,2.6,2c0.1,0.1,0.2,0.1,0.4,0.2c0.1,0.1,0.2,0.1,0.4,0.1c0.2,0.1,0.5,0.2,0.7,0.3c0,0,0,0,0.1,0
					l0,0c0.1,0,0.2,0,0.3,0.1c0.1,0,0.2,0.1,0.4,0.1c2.7,0.5,5.4-0.2,7.4-2l2.7-2.4C78.9,69.9,79.9,67.9,80.2,65.7z M53.7,13.7
					l0.5-1.7L70,16.6l-0.5,1.7 M54.7,9.9l0.5-1.7l15.9,4.6l-0.5,1.7L54.7,9.9z M70.6,5.4c1.4,0.4,2.1,1.8,1.8,3.2l-0.6,2.1L55.8,6.2
					l0.6-2.1c0.4-1.4,1.8-2.1,3.2-1.8 M65.4,71.9c-0.1,0.2-0.1,0.4-0.1,0.6c-0.5-0.3-0.9-0.7-1.3-1.1L43.8,48.3l9.3-32.5L69,20.4
					l-6.8,23.8l14.3,16.3c0.7,0.7,1.1,1.6,1.4,2.6l0,0C72.2,62.8,67,66.3,65.4,71.9z M75.8,69.7L73.1,72c-1.6,1.4-3.8,1.9-5.8,1.4
					c0.1-0.3,0.1-0.6,0.2-0.9c1.3-4.7,5.8-7.6,10.5-7.2C77.9,67,77.1,68.5,75.8,69.7z"/>
			</g>
		</g>
	</g>
</g>
<g id="Layer_2" display="none">
</g>
</svg>
