<?xml version="1.0" encoding="utf-8"?>
<!-- Generator: Adobe Illustrator 18.0.0, SVG Export Plug-In . SVG Version: 6.00 Build 0)  -->
<!DOCTYPE svg PUBLIC "-//W3C//DTD SVG 1.1//EN" "http://www.w3.org/Graphics/SVG/1.1/DTD/svg11.dtd">
<svg version="1.1" xmlns="http://www.w3.org/2000/svg" xmlns:xlink="http://www.w3.org/1999/xlink" x="0px" y="0px"
	 viewBox="0 0 319 85" enable-background="new 0 0 319 85" xml:space="preserve">
<g id="Layer_1">
	<g>
		<path fill="#939598" d="M102.9,19.7h-1.6l-0.2-2.5c-0.5-0.5-1.1-0.9-1.8-1.2c-0.7-0.3-1.6-0.4-2.5-0.4c-1.4,0-2.5,0.3-3.2,0.9
			c-0.7,0.6-1.1,1.3-1.1,2.1c0,0.8,0.3,1.5,0.9,2c0.6,0.5,1.8,1,3.6,1.4c2.1,0.5,3.6,1.1,4.7,1.9c1,0.8,1.5,1.9,1.5,3.3
			c0,1.4-0.6,2.6-1.8,3.5c-1.2,0.9-2.7,1.3-4.7,1.3c-1.3,0-2.5-0.2-3.5-0.5c-1.1-0.4-2-0.9-2.7-1.5v-3.5h1.6l0.3,2.5
			c0.5,0.5,1.2,0.9,2,1.1c0.8,0.2,1.6,0.3,2.5,0.3c1.4,0,2.5-0.3,3.3-0.9c0.8-0.6,1.2-1.4,1.2-2.2c0-0.8-0.3-1.5-1-2.1
			c-0.7-0.6-1.9-1.1-3.6-1.5c-2.1-0.5-3.6-1.1-4.6-1.8c-1-0.7-1.5-1.8-1.5-3.1c0-1.3,0.6-2.5,1.7-3.4c1.1-0.9,2.6-1.4,4.5-1.4
			c1.3,0,2.4,0.2,3.5,0.6c1.1,0.4,1.9,0.9,2.6,1.6L102.9,19.7z"/>
		<path fill="#939598" d="M104.8,8V6.6h4.5v10.7c0.6-1,1.4-1.9,2.3-2.4s2.1-0.9,3.4-0.9c1.8,0,3.2,0.6,4.2,1.7
			c1,1.1,1.5,2.9,1.5,5.3v9.1l2.6,0.2v1.4h-7.2v-1.4l2.6-0.2V21c0-1.9-0.4-3.2-1.1-4.1c-0.7-0.8-1.8-1.2-3.1-1.2
			c-1.3,0-2.4,0.3-3.3,1c-0.9,0.7-1.5,1.6-2,2.8v10.7l2.6,0.2v1.4h-7.2v-1.4l2.6-0.2V8.2L104.8,8z"/>
		<path fill="#939598" d="M125,22.8c0-2.6,0.7-4.7,2.1-6.3c1.4-1.6,3.3-2.5,5.6-2.5c2.3,0,4.2,0.8,5.6,2.5c1.4,1.6,2.1,3.7,2.1,6.3
			v0.5c0,2.6-0.7,4.7-2.1,6.3c-1.4,1.6-3.3,2.5-5.6,2.5c-2.3,0-4.2-0.8-5.6-2.5c-1.4-1.6-2.1-3.7-2.1-6.3V22.8z M126.9,23.3
			c0,2,0.5,3.7,1.5,5.1s2.4,2.1,4.3,2.1c1.8,0,3.2-0.7,4.2-2.1c1-1.4,1.5-3.1,1.5-5.1v-0.5c0-2-0.5-3.7-1.5-5.1
			c-1-1.4-2.4-2.1-4.2-2.1s-3.2,0.7-4.2,2.1c-1,1.4-1.5,3.1-1.5,5.1V23.3z"/>
		<path fill="#939598" d="M155,28.9c-0.5,1-1.3,1.8-2.2,2.4c-1,0.6-2.1,0.8-3.4,0.8c-1.8,0-3.3-0.6-4.3-1.9c-1-1.2-1.6-3.2-1.6-5.8
			v-8.5l-2.2-0.2v-1.4h2.2h1.9v10.1c0,2.1,0.4,3.7,1.1,4.6c0.7,0.9,1.8,1.4,3.1,1.4c1.5,0,2.6-0.3,3.5-1c0.9-0.6,1.5-1.5,1.8-2.7
			V15.9l-2.5-0.2v-1.4h2.5h1.9v15.8l2.3,0.2v1.4h-4L155,28.9z"/>
		<path fill="#939598" d="M159.7,8V6.6h4.5v23.5l2.6,0.2v1.4h-7.2v-1.4l2.6-0.2V8.2L159.7,8z"/>
		<path fill="#939598" d="M180.7,29.2c-0.6,0.9-1.3,1.6-2.2,2.1c-0.9,0.5-2,0.7-3.2,0.7c-2.1,0-3.7-0.8-4.9-2.3
			c-1.2-1.6-1.8-3.6-1.8-6.2v-0.3c0-2.8,0.6-5,1.8-6.7c1.2-1.7,2.8-2.5,4.9-2.5c1.2,0,2.3,0.3,3.2,0.8c0.9,0.5,1.6,1.2,2.2,2.2V8.2
			L178,8V6.6h2.6h1.9v23.5l2.6,0.2v1.4h-4.3L180.7,29.2z M170.5,23.5c0,2.1,0.4,3.8,1.3,5c0.8,1.2,2.1,1.9,3.8,1.9
			c1.2,0,2.3-0.3,3.1-0.8c0.8-0.6,1.5-1.3,1.9-2.3V19c-0.4-1-1-1.8-1.9-2.4c-0.8-0.6-1.9-0.9-3.1-0.9c-1.7,0-3,0.7-3.8,2.1
			c-0.9,1.4-1.3,3.2-1.3,5.4V23.5z"/>
		<path fill="#939598" d="M198.9,31.7c-0.1-0.6-0.2-1.1-0.3-1.5c-0.1-0.4-0.1-0.9-0.1-1.3c-0.6,0.9-1.5,1.7-2.6,2.3
			c-1.1,0.6-2.3,0.9-3.6,0.9c-1.7,0-3-0.4-4-1.3c-0.9-0.9-1.4-2.1-1.4-3.6c0-1.6,0.7-2.9,2.1-3.8c1.4-0.9,3.3-1.4,5.6-1.4h3.9v-2.3
			c0-1.2-0.4-2.2-1.2-2.9c-0.8-0.7-1.9-1.1-3.4-1.1c-1,0-1.9,0.1-2.7,0.4c-0.8,0.3-1.5,0.6-2,1.1l-0.2,2.3h-1.6l0-3.4
			c0.8-0.6,1.8-1.1,2.9-1.5c1.1-0.4,2.3-0.6,3.6-0.6c1.9,0,3.5,0.5,4.6,1.5c1.2,1,1.8,2.4,1.8,4.2v8.6c0,0.4,0,0.7,0,1
			c0,0.3,0.1,0.6,0.1,1l1.7,0.1v1.4H198.9z M192.5,30.4c1.4,0,2.6-0.3,3.7-1c1.1-0.6,1.8-1.5,2.3-2.5v-3.5h-3.9
			c-1.8,0-3.1,0.4-4.2,1.1c-1,0.7-1.6,1.6-1.6,2.7c0,0.9,0.3,1.7,1,2.3C190.5,30.1,191.4,30.4,192.5,30.4z"/>
		<path fill="#39BFC2" d="M90.6,49.6v-2.4H98l0.3,4.9c0.9-1.7,2.2-3.1,3.8-4c1.6-0.9,3.5-1.4,5.7-1.4c2.3,0,4.1,0.6,5.7,1.7
			c1.5,1.1,2.6,2.8,3.3,5c0.9-2.1,2.2-3.7,3.8-4.9c1.6-1.2,3.7-1.8,6-1.8c3.2,0,5.6,1,7.3,3.1c1.7,2.1,2.6,5.3,2.6,9.7v14.5l4.5,0.4
			v2.4h-12.2v-2.4l4.5-0.4V59.4c0-3.6-0.6-6.2-1.9-7.7s-3.1-2.3-5.4-2.3c-2.6,0-4.5,0.8-5.9,2.4c-1.4,1.6-2.2,3.7-2.6,6.2
			c0,0.1,0,0.3,0,0.4c0,0.1,0,0.3,0,0.5v15l4.5,0.4v2.4h-12.2v-2.4l4.5-0.4V59.4c0-3.6-0.7-6.1-2-7.7c-1.3-1.5-3.1-2.3-5.4-2.3
			c-2.3,0-4.2,0.6-5.5,1.8c-1.4,1.2-2.3,2.8-2.9,4.7v18l4.5,0.4v2.4H90.6v-2.4l4.5-0.4v-24L90.6,49.6z"/>
		<path fill="#39BFC2" d="M163,76.7c-0.2-1-0.4-1.9-0.5-2.6c-0.1-0.7-0.1-1.5-0.1-2.2c-1.1,1.5-2.6,2.8-4.4,3.9
			c-1.8,1-3.9,1.5-6.2,1.5c-2.9,0-5.1-0.7-6.7-2.2c-1.6-1.5-2.4-3.5-2.4-6.1c0-2.7,1.2-4.9,3.5-6.5c2.4-1.6,5.5-2.4,9.6-2.4h6.5
			v-3.9c0-2.1-0.7-3.8-2-5c-1.4-1.2-3.3-1.8-5.7-1.8c-1.6,0-3.1,0.2-4.5,0.7c-1.4,0.4-2.5,1.1-3.4,1.8l-0.3,4h-2.7l0-5.7
			c1.4-1.1,3-1.9,4.9-2.6c1.9-0.7,3.9-1,6.1-1c3.3,0,5.9,0.8,7.9,2.5c2,1.7,3,4,3,7.1v14.5c0,0.6,0,1.2,0,1.7c0,0.6,0.1,1.1,0.2,1.6
			l3,0.2v2.4H163z M152.3,74.4c2.4,0,4.5-0.5,6.3-1.6s3.1-2.5,3.9-4.2v-5.9h-6.6c-3,0-5.3,0.6-7.1,1.8s-2.7,2.8-2.7,4.7
			c0,1.6,0.6,2.9,1.7,3.8C148.8,73.9,150.3,74.4,152.3,74.4z"/>
		<path fill="#39BFC2" d="M176.6,39.6v7.6h6.5v2.7h-6.5v19.3c0,1.9,0.4,3.3,1.1,4.1c0.7,0.8,1.6,1.2,2.8,1.2c0.5,0,1,0,1.5-0.1
			c0.5,0,1.1-0.1,1.7-0.2l0.5,2.4c-0.5,0.2-1.2,0.4-2,0.5c-0.8,0.1-1.6,0.2-2.4,0.2c-2.1,0-3.7-0.7-4.9-2c-1.2-1.3-1.7-3.4-1.7-6.2
			V49.8h-5.1v-2.7h5.1v-7.6H176.6z"/>
		<path fill="#39BFC2" d="M197.5,74.5c2.2,0,4.1-0.6,5.7-1.9c1.7-1.2,2.5-3,2.5-5.2h2.9l0.1,0.2c0.1,2.7-1,5-3.3,6.9
			c-2.3,1.8-4.9,2.8-7.9,2.8c-4,0-7.1-1.4-9.3-4.1c-2.2-2.8-3.3-6.3-3.3-10.7v-1.1c0-4.3,1.1-7.8,3.3-10.6c2.2-2.8,5.3-4.2,9.3-4.2
			c2.3,0,4.4,0.4,6.3,1.3c1.9,0.9,3.4,2,4.6,3.5l0.1,6.5h-2.8l-0.5-5.2c-0.9-1-2-1.8-3.3-2.3c-1.3-0.6-2.8-0.9-4.4-0.9
			c-3.2,0-5.5,1.1-7,3.4c-1.5,2.3-2.3,5.1-2.3,8.6v1.1c0,3.5,0.8,6.4,2.3,8.6C191.9,73.4,194.3,74.5,197.5,74.5z"/>
		<path fill="#39BFC2" d="M210.9,36.5v-2.4h7.7v18.1c1-1.8,2.3-3.1,3.9-4.1s3.6-1.5,5.7-1.5c3.1,0,5.5,1,7.2,2.9
			c1.7,1.9,2.5,4.9,2.5,9V74l4.5,0.4v2.4h-12.2v-2.4l4.5-0.4V58.4c0-3.2-0.6-5.5-1.9-6.9c-1.3-1.4-3-2.1-5.2-2.1
			c-2.2,0-4.1,0.6-5.6,1.8s-2.6,2.7-3.3,4.7V74l4.5,0.4v2.4h-12.2v-2.4l4.5-0.4V36.9L210.9,36.5z"/>
		<path fill="#39BFC2" d="M256.8,77.3c-3.7,0-6.8-1.4-9.2-4.1c-2.4-2.7-3.7-6.2-3.7-10.4v-1.5c0-4.2,1.2-7.7,3.7-10.5
			s5.4-4.2,8.8-4.2c3.6,0,6.5,1.1,8.6,3.4s3.1,5.4,3.1,9.2V62h-20.9v0.8c0,3.3,0.9,6.1,2.7,8.4c1.8,2.3,4.1,3.4,7,3.4
			c2,0,3.8-0.3,5.2-0.8c1.4-0.6,2.7-1.4,3.7-2.4l1.4,2.2c-1.1,1.2-2.5,2.1-4.2,2.8S259.2,77.3,256.8,77.3z M256.4,49.4
			c-2.4,0-4.4,0.9-6.1,2.8c-1.7,1.9-2.6,4.2-2.9,7l0.1,0.1h17.3v-0.8c0-2.6-0.8-4.7-2.3-6.5C261,50.3,259,49.4,256.4,49.4z"/>
		<path fill="#39BFC2" d="M278.7,47.1l0.4,4.9v0.4c0.8-1.8,2-3.2,3.4-4.3c1.4-1,3.2-1.5,5.2-1.5c0.4,0,0.8,0,1.2,0.1
			c0.4,0.1,0.7,0.1,1,0.2l-0.4,3.1l-2.4-0.2c-2.1,0-3.8,0.6-5.1,1.7c-1.3,1.2-2.3,2.7-2.8,4.8V74l4.5,0.4v2.4h-12.2v-2.4l4.5-0.4
			v-24l-4.5-0.4v-2.4h4.5H278.7z"/>
		<path fill="#39BFC2" d="M313.3,56.3h-2.7l-0.4-4.2c-0.8-0.9-1.9-1.5-3.1-2c-1.2-0.5-2.7-0.7-4.3-0.7c-2.4,0-4.2,0.5-5.4,1.5
			c-1.2,1-1.8,2.2-1.8,3.6c0,1.4,0.5,2.5,1.5,3.4c1,0.9,3.1,1.7,6.2,2.4c3.5,0.8,6.2,1.9,7.9,3.2c1.8,1.4,2.6,3.2,2.6,5.5
			c0,2.5-1,4.5-3,6c-2,1.5-4.6,2.3-7.9,2.3c-2.2,0-4.2-0.3-6-0.9c-1.8-0.6-3.3-1.5-4.7-2.6v-6h2.7l0.5,4.2c0.9,0.9,2,1.5,3.3,1.9
			c1.3,0.4,2.7,0.6,4.2,0.6c2.4,0,4.2-0.5,5.6-1.6s2.1-2.3,2.1-3.8c0-1.4-0.6-2.6-1.7-3.6c-1.1-1-3.2-1.9-6.2-2.5
			c-3.5-0.8-6.1-1.8-7.8-3c-1.7-1.3-2.6-3-2.6-5.3c0-2.3,1-4.2,2.9-5.7s4.4-2.3,7.6-2.3c2.2,0,4.2,0.3,5.9,1
			c1.8,0.7,3.3,1.6,4.4,2.7L313.3,56.3z"/>
	</g>
	<g>
		<g>
			<path fill="#F15F30" d="M34.5,72.9c0-0.1,0.1-0.2,0.1-0.3c0,0,0,0,0,0c0-0.1,0.1-0.2,0.1-0.3c0.1-0.2,0.1-0.5,0.2-0.7
				c0-0.1,0-0.2,0.1-0.3c0-0.1,0-0.2,0-0.4c0.2-1.5-0.1-3-0.7-4.4l-8.2-17l17.2-28.2c1.3-2.1,0.6-4.8-1.5-6l-9-5.5
				c-2.1-1.3-4.8-0.6-6,1.5L4.1,48.4l12.8,26.5c0.4,0.9,1.1,1.7,1.8,2.4c0.1,0.1,0.2,0.2,0.3,0.2c0.1,0.1,0.2,0.1,0.3,0.2
				c0.2,0.1,0.4,0.3,0.6,0.4c0,0,0,0,0,0l0,0c0.1,0.1,0.2,0.1,0.3,0.1c0.1,0.1,0.2,0.1,0.3,0.2c2.2,1.1,4.8,1.2,7.1,0.1l3-1.4
				C32.4,76.2,33.7,74.7,34.5,72.9z M23.7,20.2l0.8-1.4l13,7.9l-0.8,1.4 M25.6,17.1l0.8-1.4l13,7.9L38.6,25L25.6,17.1z M31.8,11.5
				l9,5.5c1.1,0.7,1.5,2.1,0.8,3.2l-1,1.7l-13-7.9l1-1.7C29.2,11.1,30.6,10.8,31.8,11.5z M22.6,21.9l13,7.9L23.7,49.3l8.7,18
				c0.4,0.8,0.6,1.7,0.6,2.6l0,0c-4.9-1.6-10.4,0.2-13.2,4.8c-0.1,0.2-0.2,0.4-0.3,0.5c-0.3-0.4-0.6-0.8-0.9-1.3L6.4,48.5
				 M29.7,75.3l-3,1.4c-1.8,0.9-3.8,0.8-5.5-0.2c0.1-0.3,0.3-0.5,0.4-0.8c2.3-3.8,7-5.3,11.1-3.8C32.1,73.4,31.1,74.6,29.7,75.3z"/>
		</g>
		<g>
			<g>
				<path fill="#39BFC2" d="M76.5,65.5c0-0.1,0-0.2,0-0.3c0,0,0,0,0,0c0-0.1,0-0.2,0-0.3c0-0.2,0-0.5-0.1-0.7c0-0.1,0-0.2-0.1-0.4
					c0-0.1,0-0.2-0.1-0.4c-0.3-1.5-1-2.8-2.1-3.9L60.9,46.1l7-32.3c0.5-2.4-1-4.7-3.4-5.2L54.3,6.4c-2.4-0.5-4.7,1-5.2,3.4
					l-9.3,42.5l20.8,20.8c0.7,0.7,1.6,1.3,2.5,1.7c0.1,0,0.2,0.1,0.3,0.1c0.1,0,0.2,0.1,0.3,0.1c0.2,0.1,0.5,0.1,0.7,0.2
					c0,0,0,0,0,0l0,0c0.1,0,0.2,0,0.3,0c0.1,0,0.2,0,0.3,0.1c2.5,0.3,4.9-0.5,6.7-2.2l2.3-2.3C75.6,69.4,76.4,67.5,76.5,65.5z
					 M49,19.2l0.3-1.6l14.9,3.2l-0.3,1.6 M49.8,15.7l0.3-1.6l14.9,3.2l-0.3,1.6L49.8,15.7z M64.1,10.6c1.3,0.3,2.1,1.5,1.8,2.8
					l-0.4,2l-14.9-3.2l0.4-2c0.3-1.3,1.5-2.1,2.8-1.8 M63.3,72c0,0.2-0.1,0.4-0.1,0.6c-0.4-0.3-0.9-0.6-1.2-0.9l-20-20l6.6-30.4
					l14.9,3.2l-4.9,22.3l14.1,14.2c0.6,0.6,1.1,1.4,1.4,2.3l0,0C69,63.2,64.4,66.8,63.3,72z M72.8,69.3l-2.3,2.3
					c-1.4,1.4-3.3,2-5.3,1.6c0-0.3,0.1-0.6,0.1-0.9c1-4.4,4.9-7.3,9.2-7.2C74.5,66.8,73.9,68.2,72.8,69.3z"/>
			</g>
		</g>
	</g>
</g>
<g id="Layer_2" display="none">
</g>
</svg>
