<?xml version="1.0" encoding="utf-8"?>
<!-- Generator: Adobe Illustrator 18.0.0, SVG Export Plug-In . SVG Version: 6.00 Build 0)  -->
<!DOCTYPE svg PUBLIC "-//W3C//DTD SVG 1.1//EN" "http://www.w3.org/Graphics/SVG/1.1/DTD/svg11.dtd">
<svg version="1.1" xmlns="http://www.w3.org/2000/svg" xmlns:xlink="http://www.w3.org/1999/xlink" x="0px" y="0px"
	 viewBox="0 0 321.7 78.1" enable-background="new 0 0 321.7 78.1" xml:space="preserve">
<g id="Layer_1">
	<g>
		<path fill="#F2917E" d="M98.3,23.1c0,1.4-0.5,2.5-1.6,3.2c-1.1,0.8-2.6,1.1-4.5,1.1c-2.1,0-3.8-0.3-5-1V25c1.6,0.8,3.2,1.2,5,1.2
			c1.5,0,2.7-0.3,3.5-0.8s1.2-1.2,1.2-2.1c0-0.8-0.3-1.5-1-2c-0.6-0.5-1.7-1.1-3.1-1.6c-1.6-0.6-2.7-1.1-3.3-1.5s-1.1-0.9-1.4-1.4
			c-0.3-0.5-0.5-1.1-0.5-1.9c0-1.2,0.5-2.1,1.5-2.8c1-0.7,2.4-1,4.1-1c1.7,0,3.3,0.3,4.8,1l-0.5,1.3c-1.5-0.6-3-1-4.3-1
			c-1.3,0-2.3,0.2-3,0.6c-0.7,0.4-1.1,1-1.1,1.8c0,0.8,0.3,1.5,0.9,2c0.6,0.5,1.7,1,3.4,1.6c1.4,0.5,2.4,1,3.1,1.4
			c0.6,0.4,1.1,0.9,1.4,1.4C98.1,21.8,98.3,22.4,98.3,23.1z"/>
		<path fill="#F2917E" d="M112,27.2V17.1c0-1.6-0.3-2.7-1-3.4c-0.7-0.7-1.7-1.1-3.1-1.1c-1.9,0-3.2,0.5-4.1,1.4
			c-0.9,0.9-1.3,2.5-1.3,4.6v8.6h-1.4V4.8h1.4v7.1l-0.1,2h0.1c0.6-0.9,1.3-1.6,2.2-2c0.9-0.4,2-0.6,3.3-0.6c3.6,0,5.3,1.9,5.3,5.7
			v10.2H112z"/>
		<path fill="#F2917E" d="M129.4,19.4c0,2.6-0.6,4.5-1.9,6c-1.2,1.4-2.9,2.2-5.1,2.2c-1.4,0-2.6-0.3-3.6-1c-1-0.7-1.8-1.6-2.4-2.9
			c-0.6-1.2-0.8-2.7-0.8-4.3c0-2.6,0.6-4.5,1.9-6c1.2-1.4,2.9-2.1,5.1-2.1c2.2,0,3.8,0.7,5.1,2.2C128.8,14.9,129.4,16.8,129.4,19.4z
			 M117,19.4c0,2.2,0.5,3.8,1.4,5c0.9,1.2,2.3,1.8,4,1.8s3.1-0.6,4-1.8c0.9-1.2,1.4-2.9,1.4-5c0-2.2-0.5-3.8-1.4-5
			c-1-1.2-2.3-1.8-4-1.8s-3.1,0.6-4,1.8C117.5,15.5,117,17.2,117,19.4z"/>
		<path fill="#F2917E" d="M133.8,11.6v10.1c0,1.6,0.3,2.7,1,3.4c0.7,0.7,1.7,1.1,3.1,1.1c1.9,0,3.2-0.5,4.1-1.4
			c0.9-0.9,1.3-2.5,1.3-4.6v-8.6h1.4v15.7h-1.2l-0.3-2.2h-0.1c-1,1.6-2.8,2.4-5.4,2.4c-3.6,0-5.3-1.9-5.3-5.7V11.6H133.8z"/>
		<path fill="#F2917E" d="M149.6,27.2h-1.4V4.8h1.4V27.2z"/>
		<path fill="#F2917E" d="M159,11.3c1.1,0,2.1,0.2,2.9,0.6c0.8,0.4,1.6,1.1,2.2,2.1h0.1c-0.1-1.2-0.1-2.4-0.1-3.6V4.8h1.4v22.4h-0.9
			l-0.4-2.4h-0.1c-1.2,1.8-2.9,2.7-5.1,2.7c-2.2,0-3.8-0.7-5-2c-1.1-1.3-1.7-3.3-1.7-5.9c0-2.7,0.6-4.8,1.7-6.2
			C155.2,12,156.8,11.3,159,11.3z M159,12.6c-1.7,0-3,0.6-3.9,1.8c-0.9,1.2-1.3,2.9-1.3,5.2c0,4.4,1.7,6.7,5.2,6.7
			c1.8,0,3.1-0.5,3.9-1.5s1.2-2.7,1.2-5.1v-0.2c0-2.4-0.4-4.2-1.2-5.2C162.1,13.1,160.8,12.6,159,12.6z"/>
		<path fill="#F2917E" d="M178.6,27.2l-0.4-2.5h-0.1c-0.8,1-1.6,1.7-2.4,2.1c-0.8,0.4-1.8,0.6-2.9,0.6c-1.5,0-2.7-0.4-3.6-1.2
			c-0.9-0.8-1.3-1.9-1.3-3.3c0-1.5,0.6-2.7,1.9-3.6s3.1-1.3,5.5-1.3l3-0.1v-1c0-1.5-0.3-2.6-0.9-3.4c-0.6-0.8-1.6-1.1-2.9-1.1
			c-1.5,0-3,0.4-4.5,1.2l-0.5-1.2c1.7-0.8,3.4-1.2,5.1-1.2c1.7,0,3,0.4,3.9,1.3c0.8,0.9,1.3,2.3,1.3,4.2v10.4H178.6z M172.9,26.2
			c1.7,0,3-0.5,4-1.4c1-1,1.4-2.3,1.4-4v-1.5l-2.7,0.1c-2.2,0.1-3.8,0.4-4.7,1c-0.9,0.6-1.4,1.5-1.4,2.7c0,1,0.3,1.7,0.9,2.3
			C170.9,25.9,171.8,26.2,172.9,26.2z"/>
		<path fill="#39BFC2" d="M112.3,54.2c-1.4,2.7-2.8,5.4-4.4,8.2c-0.3,0.5-0.5,1-0.7,1.4c-0.2,0.4-0.5,0.7-0.8,0.9
			c-0.2,0.1-0.5,0.2-0.7,0.2c-0.3,0-0.5,0-0.8,0s-0.6,0-0.8,0c-0.3,0-0.5-0.1-0.7-0.2c-0.3-0.1-0.6-0.4-0.8-0.9
			c-0.2-0.4-0.5-0.9-0.7-1.4c-1.5-2.6-2.9-5.4-4.4-8.2c-1.5-2.8-2.9-5.5-4.4-8v23.2c0,0.5,0,0.8-0.1,1.1c0,0.2-0.2,0.4-0.3,0.5
			c-0.2,0.1-0.4,0.2-0.7,0.2s-0.7,0-1.3,0c-0.5,0-0.8,0-1.2,0s-0.5-0.1-0.7-0.2c-0.2-0.1-0.3-0.3-0.3-0.5c-0.1-0.2-0.1-0.6-0.1-1
			V38.1h-2.6v-2.4c0.3-0.3,0.7-0.6,1.2-0.8c0.4-0.2,0.9-0.4,1.4-0.6c0.5-0.2,1.2-0.3,1.9-0.3c0.6,0,1.1,0.1,1.4,0.4h0
			c0.4,0.3,0.7,0.7,1.1,1.2s0.6,1.1,0.9,1.6c1.9,3.5,3.7,7,5.7,10.5c1.9,3.5,3.8,7,5.6,10.4c1.8-3.4,3.7-6.9,5.6-10.4
			s3.8-7,5.7-10.5c0.3-0.6,0.6-1.1,0.9-1.6s0.7-0.9,1.1-1.2c0.5-0.3,0.9-0.4,1.5-0.4c0.7,0,1.1,0.1,1.4,0.3c0.3,0.2,0.5,0.5,0.5,0.9
			l0,30.8v2.9h2.6V71c-0.6,0.2-1.1,0.3-1.5,0.4c-0.4,0.1-0.9,0.2-1.5,0.2c-0.6,0.1-1.2,0.1-1.8,0c-0.7-0.1-1.3-0.3-1.6-0.6
			c-0.4-0.3-0.6-0.7-0.7-1.1c-0.1-0.4-0.2-0.9-0.2-1.5v-1.7v-0.4V46.2C115.1,48.9,113.7,51.5,112.3,54.2z"/>
		<path fill="#39BFC2" d="M130.6,70.1c-0.3,0.8-0.6,1.3-1,1.3c-0.4,0-1-0.1-1.8-0.3c-0.5-0.2-0.9-0.3-1.2-0.4
			c-0.3-0.1-0.5-0.2-0.6-0.3c-0.1-0.1-0.2-0.3-0.1-0.6s0.1-0.6,0.3-1.1l10.7-32.1c0.1-0.3,0.2-0.7,0.4-1.1c0.2-0.4,0.3-0.6,0.5-0.7
			c0.2-0.1,0.4-0.1,0.7-0.1c0.3,0,0.6,0,0.9,0h2.5c0.4,0,0.7,0,1.1,0c0.4,0,0.7,0.1,1,0.2c0.2,0.1,0.4,0.3,0.5,0.7
			c0.2,0.4,0.3,0.7,0.4,1.1l10.9,32.1h2.7v2.2c0,0-0.4,0.1-1.2,0.4s-1.8,0.3-3,0.2c-0.6-0.1-1.2-0.2-1.7-0.5c-0.5-0.2-0.8-0.5-1-0.9
			c-0.2-0.3-0.4-0.8-0.7-1.6s-0.6-1.6-1-2.6c-0.4-1-0.8-2.1-1.2-3.4c-0.4-1.2-0.9-2.5-1.3-3.9h-12.8L130.6,70.1z M140.8,38.1
			c-0.1,0.5-0.3,1.1-0.6,2c-0.3,0.8-0.6,1.8-0.9,2.8c-0.3,1-0.7,2.1-1.1,3.3c-0.4,1.1-0.7,2.2-1.1,3.3c-0.3,1-0.6,2-0.9,2.9
			c-0.3,0.9-0.4,1.5-0.5,2h10.2c-0.4-1.2-0.7-2.3-1-3.3s-0.6-2.1-1-3.3c-0.4-1.2-0.8-2.5-1.3-4.1C142.1,42.2,141.5,40.3,140.8,38.1z
			"/>
		<path fill="#39BFC2" d="M154.9,38.8c-0.5,0-0.8,0-1.1-0.1s-0.4-0.2-0.5-0.3c-0.1-0.2-0.2-0.4-0.2-0.7c0-0.3,0-0.6,0-1.1
			c0-0.8,0.1-1.3,0.2-1.5c0.1-0.3,0.7-0.4,1.5-0.4h22.7c0.9,0,1.4,0.1,1.5,0.4c0.1,0.3,0.2,0.8,0.2,1.5c0,0.5,0,0.8,0,1.1
			c0,0.3-0.1,0.5-0.2,0.7c-0.1,0.2-0.3,0.3-0.5,0.3s-0.6,0.1-1.1,0.1h-9.2v30.7c0,0.5,0,0.8-0.1,1.1c0,0.2-0.2,0.4-0.3,0.5
			c-0.2,0.1-0.4,0.2-0.7,0.2s-0.7,0-1.3,0c-0.5,0-0.8,0-1.2,0c-0.3,0-0.5-0.1-0.7-0.2c-0.2-0.1-0.3-0.3-0.3-0.5
			c-0.1-0.2-0.1-0.6-0.1-1V38.8H154.9z"/>
		<path fill="#39BFC2" d="M191.6,67.2c1.8,0,3.4-0.1,4.8-0.3s2.7-0.5,3.8-0.9c0.7-0.2,1.2-0.4,1.5-0.5c0.4-0.1,0.7-0.2,0.9-0.2
			c0.2,0,0.4,0.2,0.6,0.4c0.2,0.3,0.4,0.7,0.6,1.3c0.2,0.7,0.4,1.2,0.4,1.6c0,0.4-0.2,0.8-0.5,1c-0.4,0.3-1,0.5-1.7,0.7
			c-0.8,0.2-1.8,0.4-3.1,0.7c-1,0.2-2,0.3-2.9,0.4c-0.9,0.1-1.7,0.1-2.5,0.1c-2.5,0.1-4.8-0.3-6.6-1.2s-3.3-2.1-4.4-3.8
			c-1.1-1.7-2-3.7-2.6-5.9c-0.7-2.3-1-4.8-0.9-7.7c0.1-4.1,0.9-7.7,2.4-10.7c1.6-3,3.7-5.2,6.6-6.7c2-1,4.2-1.5,6.6-1.4
			c2.4,0.1,4.7,0.5,7,1.3c0.7,0.2,1.2,0.4,1.7,0.5c0.4,0.1,0.7,0.3,0.9,0.5c0.2,0.2,0.3,0.4,0.2,0.7c0,0.3-0.2,0.7-0.4,1.2
			c-0.3,0.8-0.5,1.3-0.7,1.6s-0.4,0.5-0.6,0.5c-0.2,0-0.5,0-0.9-0.1c-0.4-0.1-0.9-0.3-1.5-0.5c-1.2-0.4-2.2-0.6-3.2-0.8
			c-0.9-0.2-1.8-0.3-2.5-0.4c-0.7-0.1-1.4,0-2.1,0.1c-0.7,0.1-1.5,0.4-2.2,0.8c-1.5,0.7-2.7,1.8-3.7,3.3c-1,1.5-1.7,3.2-2.1,4.9
			c-0.5,1.7-0.7,4.1-0.6,7.2c0,3.1,0.7,5.9,2,8.4c0.7,1.2,1.5,2.2,2.4,2.8S190.3,67.2,191.6,67.2z"/>
		<path fill="#39BFC2" d="M212.4,70.5c0,0.2-0.2,0.4-0.3,0.5c-0.2,0.1-0.4,0.2-0.7,0.2c-0.3,0-0.7,0-1.3,0c-0.5,0-0.8,0-1.2,0
			s-0.5-0.1-0.7-0.2c-0.2-0.1-0.3-0.3-0.3-0.5c-0.1-0.2-0.1-0.6-0.1-1v-33c0-0.4,0-0.8,0.1-1c0.1-0.2,0.2-0.4,0.3-0.5
			c0.2-0.1,0.4-0.2,0.7-0.2s0.7,0,1.2,0c0.6,0,1,0,1.3,0c0.3,0,0.5,0.1,0.7,0.2c0.2,0.1,0.3,0.3,0.3,0.5c0,0.2,0.1,0.6,0.1,1.1v13.9
			H228V36.4c0-0.4,0-0.8,0.1-1c0.1-0.2,0.2-0.4,0.3-0.5c0.2-0.1,0.4-0.2,0.7-0.2s0.7,0,1.2,0c0.6,0,1,0,1.3,0c0.3,0,0.5,0.1,0.7,0.2
			c0.2,0.1,0.3,0.3,0.3,0.5c0,0.2,0.1,0.6,0.1,1.1v33c0,0.5,0,0.8-0.1,1.1c0,0.2-0.2,0.4-0.3,0.5c-0.2,0.1-0.4,0.2-0.7,0.2
			c-0.3,0-0.7,0-1.3,0c-0.5,0-0.8,0-1.2,0s-0.5-0.1-0.7-0.2c-0.2-0.1-0.3-0.3-0.3-0.5c-0.1-0.2-0.1-0.6-0.1-1V54.8h-15.6v14.7
			C212.4,69.9,212.4,70.3,212.4,70.5z"/>
		<path fill="#39BFC2" d="M244.4,70.4c-1.5-0.5-2.6-1.2-3.5-2.1c-0.9-0.9-1.5-1.9-1.9-3.1c-0.4-1.2-0.6-2.4-0.6-3.7V38.1v0
			c-1.6-0.2-2.5-0.6-2.6-1.1v-2.4h22.9c0.9,0,1.4,0.1,1.5,0.4c0.1,0.3,0.2,0.8,0.2,1.5c0,0.5,0,0.8,0,1.2c0,0.3-0.1,0.6-0.2,0.8
			c-0.1,0.2-0.3,0.3-0.5,0.4c-0.2,0.1-0.6,0.1-1.1,0.1h-15.6v11.2h13c0.9,0,1.4,0.2,1.5,0.5c0.1,0.3,0.2,0.8,0.2,1.6
			c0,0.5,0,0.8,0,1.2c0,0.3-0.1,0.6-0.2,0.8c-0.1,0.2-0.3,0.3-0.5,0.4c-0.2,0.1-0.6,0.1-1.1,0.1h-13v6.8c0,1.1,0.2,2,0.6,2.7
			c0.4,0.7,1,1.2,1.7,1.6c0.7,0.4,1.5,0.7,2.5,0.8c0.9,0.1,2,0.2,3.1,0.2h7.7c0.9,0,1.4,0.1,1.5,0.4c0.1,0.3,0.2,0.8,0.2,1.5
			c0,0.5,0,0.8,0,1.2c0,0.3-0.1,0.6-0.2,0.8s-0.3,0.3-0.5,0.4c-0.2,0.1-0.6,0.1-1.1,0.1h-8.9C247.7,71.2,245.9,71,244.4,70.4z"/>
		<path fill="#39BFC2" d="M282.8,56.2c0.5,1.2,1,2.5,1.5,3.8s1.1,2.6,1.5,3.8c0.5,1.2,0.9,2.2,1.3,3.1c0.4,0.9,0.7,1.5,0.8,1.7h2.7
			v2.2c0,0-0.4,0.1-1.2,0.4s-1.8,0.3-3,0.2c-0.6-0.1-1.2-0.2-1.8-0.5s-1-0.5-1.1-0.9c-0.1-0.2-0.4-0.8-0.8-1.7
			c-0.4-0.9-0.9-2-1.4-3.3c-0.5-1.3-1.1-2.7-1.7-4.1s-1.2-2.9-1.7-4.2h-0.7c-1.4,0-2.6,0-3.5-0.1c-0.9-0.1-1.5-0.2-1.9-0.2
			c-0.8-0.2-1.6-0.6-2.2-1.3v14.3c0,0.5,0,0.8-0.1,1.1c0,0.2-0.2,0.4-0.3,0.5c-0.2,0.1-0.4,0.2-0.7,0.2s-0.7,0-1.3,0
			c-0.5,0-0.8,0-1.2,0s-0.5-0.1-0.7-0.2c-0.2-0.1-0.3-0.3-0.3-0.5c-0.1-0.2-0.1-0.6-0.1-1V38c-1.6-0.2-2.5-0.6-2.6-1.1v-2.4h16
			c3.7,0,6.4,0.8,8.1,2.4c1.7,1.6,2.6,4.1,2.6,7.4v2.8C289,52.1,286.9,55.1,282.8,56.2z M277.9,52.3c2,0,3.6-0.5,4.6-1.5
			c1-1,1.6-2.4,1.6-4.3v-1.8c0-1.9-0.5-3.3-1.5-4.3c-1-1-2.6-1.5-4.6-1.5h-8.3v12.7c0.9,0.2,1.9,0.4,2.8,0.5s1.9,0.2,2.9,0.2H277.9z
			"/>
		<path fill="#39BFC2" d="M303.7,38.7c-2.6-0.2-4.5,0.4-5.7,1.9c-1.1,1.4-1.6,3.1-1.3,5.1c0.3,2,2.5,3.3,6.9,4.1
			c4.3,0.8,7.1,1.5,8.3,2.2c1.2,0.8,2.2,1.7,2.8,2.9c0.6,1.2,0.9,3,0.9,5.3c0,1.2-0.1,2.2-0.2,3.1c-0.1,0.9-0.2,1.7-0.4,2.4
			c-0.2,0.7-0.5,1.3-0.8,1.8c-0.4,0.5-0.8,1.1-1.4,1.5c-1.1,0.9-2.5,1.6-4.2,2c-0.9,0.2-1.8,0.4-2.7,0.5c-1,0.1-2,0.2-3.1,0.1
			c-1.1,0-2.4-0.2-3.7-0.4c-1.3-0.2-2.8-0.6-4.3-1c-0.7-0.2-1.2-0.4-1.7-0.5c-0.4-0.1-0.7-0.3-0.9-0.5c-0.2-0.2-0.3-0.4-0.2-0.7
			c0-0.3,0.1-0.7,0.3-1.2c0.3-0.7,0.5-1.2,0.8-1.6c0.2-0.3,0.5-0.5,0.8-0.5s0.7,0,1.2,0.2c0.5,0.2,1.1,0.4,2,0.7
			c2.3,0.8,4.6,1.1,6.9,1.1c1.5,0,2.8-0.2,3.8-0.5c1-0.3,1.7-0.7,2.2-1.3c0.9-1.1,1.4-2.5,1.5-4.3s-0.1-3-0.4-3.6
			c-0.3-0.6-1-1.1-2.1-1.5c-1.1-0.4-2.8-0.9-5.3-1.4c-1.2-0.3-2.3-0.5-3.2-0.7c-0.9-0.2-1.7-0.4-2.4-0.7c-1.3-0.5-2.4-1.1-3.3-1.8
			c-0.9-0.8-1.6-1.7-1.9-2.8c-0.2-0.6-0.3-1.3-0.3-2.1c0-0.9,0-1.9,0.1-3.1c0.2-2.3,1.3-4.4,3.1-6.3c1.9-1.8,4.7-2.7,8.5-2.7
			c2.8,0.1,5.5,0.4,8.2,1l1.2,0.3c0.7,0.2,1,0.5,1,0.9c0,0.4-0.1,1-0.3,1.8c-0.2,0.5-0.3,0.9-0.3,1.2c0,0.3-0.1,0.5-0.3,0.5
			c-0.1,0.1-0.4,0.1-0.7,0c-0.3-0.1-0.8-0.2-1.4-0.3c-0.8-0.2-1.9-0.4-3.2-0.6S305.4,38.8,303.7,38.7z"/>
	</g>
	<g>
		<g>
			<path fill="#F15F30" d="M32.7,69.7c0-0.1,0.1-0.2,0.2-0.3c0,0,0,0,0,0c0-0.1,0.1-0.2,0.1-0.3c0.1-0.2,0.2-0.5,0.2-0.7
				c0-0.1,0.1-0.2,0.1-0.3c0-0.1,0.1-0.2,0.1-0.4c0.3-1.5,0.1-3-0.5-4.5l-7.2-17.7l19.2-27.3c1.4-2,0.9-4.8-1.1-6.2L35.1,6
				c-2-1.4-4.8-0.9-6.2,1.1l-25.3,36l11.2,27.5c0.4,1,1,1.8,1.7,2.6c0.1,0.1,0.2,0.2,0.3,0.3c0.1,0.1,0.2,0.2,0.3,0.2
				c0.2,0.2,0.4,0.3,0.6,0.4c0,0,0,0,0,0l0,0c0.1,0.1,0.2,0.1,0.3,0.2c0.1,0.1,0.2,0.1,0.3,0.2c2.2,1.3,4.8,1.5,7.1,0.5l3.1-1.3
				C30.3,73,31.8,71.6,32.7,69.7z M25.2,15.9l0.9-1.3l12.6,8.9l-0.9,1.3 M27.3,12.9l0.9-1.3l12.6,8.9l-0.9,1.3L27.3,12.9z M33.9,7.7
				l8.7,6.1c1.1,0.8,1.3,2.2,0.6,3.3L42,18.8L29.4,9.9l1.2-1.7C31.3,7.2,32.8,6.9,33.9,7.7z M24,17.6l12.6,8.9L23.4,45.3L31,64
				c0.3,0.9,0.5,1.8,0.4,2.7l0,0c-4.8-2-10.5-0.4-13.6,4c-0.1,0.2-0.2,0.3-0.3,0.5c-0.3-0.4-0.6-0.9-0.8-1.4L5.9,43.3 M27.7,71.9
				l-3.1,1.3c-1.8,0.7-3.9,0.5-5.5-0.5c0.1-0.3,0.3-0.5,0.5-0.8c2.6-3.7,7.4-4.9,11.4-3.1C30.3,70.1,29.1,71.3,27.7,71.9z"/>
		</g>
		<g>
			<g>
				<path fill="#39BFC2" d="M75.5,65c0-0.1,0-0.2,0-0.3c0,0,0,0,0,0c0-0.1,0-0.2,0-0.4c0-0.2,0-0.5,0-0.7c0-0.1,0-0.2,0-0.4
					c0-0.1,0-0.2,0-0.4c-0.2-1.5-0.9-2.9-1.9-4.1L61,44.5l9.2-32.1c0.7-2.4-0.7-4.8-3-5.5L56.9,4c-2.4-0.7-4.8,0.7-5.5,3L39.3,49.3
					l19.6,22.3c0.7,0.8,1.5,1.4,2.4,1.9c0.1,0.1,0.2,0.1,0.3,0.2c0.1,0,0.2,0.1,0.3,0.1c0.2,0.1,0.4,0.2,0.7,0.2c0,0,0,0,0,0l0,0
					c0.1,0,0.2,0,0.3,0.1c0.1,0,0.2,0.1,0.3,0.1c2.5,0.5,5-0.2,6.9-1.8l2.5-2.2C74.3,68.9,75.3,67,75.5,65z M50.8,16.6l0.4-1.6
					l14.8,4.2l-0.4,1.6 M51.8,13.1l0.4-1.6l14.8,4.2l-0.4,1.6L51.8,13.1z M66.6,8.9c1.3,0.4,2,1.7,1.6,3l-0.6,2L52.8,9.6l0.6-2
					c0.4-1.3,1.7-2,3-1.6 M61.8,70.8c-0.1,0.2-0.1,0.4-0.1,0.6c-0.4-0.3-0.8-0.6-1.2-1L41.6,48.8l8.7-30.2l14.8,4.2L58.7,45L72,60.2
					c0.6,0.7,1,1.5,1.3,2.4l0,0C68.1,62.3,63.2,65.6,61.8,70.8z M71.5,68.7l-2.5,2.2c-1.5,1.3-3.5,1.8-5.4,1.3
					c0.1-0.3,0.1-0.6,0.2-0.9c1.2-4.4,5.4-7.1,9.8-6.7C73.4,66.2,72.7,67.6,71.5,68.7z"/>
			</g>
		</g>
	</g>
</g>
<g id="Layer_2" display="none">
</g>
</svg>
