<?xml version="1.0" encoding="utf-8"?>
<!-- Generator: Adobe Illustrator 17.1.0, SVG Export Plug-In . SVG Version: 6.00 Build 0)  -->
<!DOCTYPE svg PUBLIC "-//W3C//DTD SVG 1.1//EN" "http://www.w3.org/Graphics/SVG/1.1/DTD/svg11.dtd">
<svg version="1.1" xmlns="http://www.w3.org/2000/svg" xmlns:xlink="http://www.w3.org/1999/xlink" x="0px" y="0px"
	 viewBox="0 0 300 78.1" enable-background="new 0 0 300 78.1" xml:space="preserve">
<g id="Layer_1">
	<g>
		<g>
			<path fill="#F15F30" d="M27.9,65c0-0.1,0.1-0.2,0.1-0.3c0,0,0,0,0,0c0-0.1,0.1-0.2,0.1-0.3c0.1-0.2,0.1-0.4,0.2-0.6
				c0-0.1,0.1-0.2,0.1-0.3c0-0.1,0-0.2,0.1-0.3c0.2-1.3,0.1-2.7-0.4-4l-6.4-15.8L38.8,19c1.3-1.8,0.8-4.3-1-5.5l-7.8-5.5
				c-1.8-1.3-4.3-0.8-5.5,1L2,41.2l10,24.6c0.3,0.9,0.9,1.6,1.5,2.3c0.1,0.1,0.2,0.2,0.2,0.2c0.1,0.1,0.2,0.1,0.2,0.2
				c0.2,0.1,0.3,0.3,0.5,0.4c0,0,0,0,0,0l0,0c0.1,0.1,0.2,0.1,0.2,0.1c0.1,0.1,0.2,0.1,0.3,0.2c1.9,1.1,4.3,1.3,6.4,0.5l2.8-1.1
				C25.8,67.9,27.1,66.6,27.9,65z M21.3,16.9l0.8-1.2l11.2,7.9l-0.8,1.2 M23.1,14.2l0.8-1.2L35.2,21l-0.8,1.2L23.1,14.2z M29,9.6
				l7.8,5.5c1,0.7,1.2,2,0.5,3l-1,1.5L25,11.6l1-1.5C26.7,9.1,28.1,8.9,29,9.6z M14.7,65.8c-0.1,0.2-0.2,0.3-0.3,0.5
				c-0.3-0.4-0.5-0.8-0.7-1.2L4.1,41.4l16.1-23l11.2,7.9L19.6,43.2l6.8,16.7c0.3,0.8,0.4,1.6,0.4,2.4l0,0
				C22.5,60.5,17.4,61.8,14.7,65.8z M23.5,66.9L20.7,68c-1.6,0.7-3.5,0.5-5-0.5c0.1-0.2,0.3-0.5,0.4-0.7c2.3-3.3,6.6-4.4,10.2-2.8
				C25.8,65.3,24.8,66.3,23.5,66.9z"/>
		</g>
		<g>
			<g>
				<path fill="#39BFC2" d="M66.2,60.8c0-0.1,0-0.2,0-0.3c0,0,0,0,0,0c0-0.1,0-0.2,0-0.3c0-0.2,0-0.4,0-0.6c0-0.1,0-0.2,0-0.3
					c0-0.1,0-0.2,0-0.3c-0.2-1.3-0.8-2.6-1.7-3.6L53.2,42.4l8.2-28.6c0.6-2.1-0.6-4.3-2.7-4.9l-9.1-2.6c-2.1-0.6-4.3,0.6-4.9,2.7
					L33.9,46.7l17.5,19.9c0.6,0.7,1.4,1.3,2.2,1.7c0.1,0,0.2,0.1,0.3,0.1c0.1,0,0.2,0.1,0.3,0.1c0.2,0.1,0.4,0.1,0.6,0.2
					c0,0,0,0,0,0l0,0c0.1,0,0.2,0,0.3,0.1c0.1,0,0.2,0,0.3,0.1c2.2,0.4,4.5-0.1,6.2-1.6l2.2-2C65.1,64.2,66,62.6,66.2,60.8z
					 M44.1,17.5l0.4-1.4l13.2,3.8l-0.4,1.4 M45,14.4l0.4-1.4l13.2,3.8l-0.4,1.4L45,14.4z M58.2,10.6c1.1,0.3,1.8,1.5,1.5,2.6
					L59.2,15l-13.2-3.8l0.5-1.7C46.8,8.4,48,7.7,49.1,8 M53.9,65.9c-0.1,0.2-0.1,0.4-0.1,0.5c-0.4-0.3-0.7-0.6-1.1-0.9L35.9,46.3
					l7.7-27l13.2,3.8l-5.7,19.8l11.9,13.6c0.5,0.6,0.9,1.3,1.1,2.1l0,0C59.6,58.3,55.2,61.2,53.9,65.9z M62.6,64l-2.2,2
					c-1.3,1.2-3.1,1.6-4.8,1.2c0-0.3,0.1-0.5,0.2-0.8c1.1-3.9,4.8-6.3,8.7-6C64.3,61.8,63.6,63.1,62.6,64z"/>
			</g>
		</g>
	</g>
	<g opacity="0.96">
		<text transform="matrix(1 0 0 1 80.5269 54.3641)"><tspan x="0" y="0" fill="#39BFC2" font-family="'Margot-Regular'" font-size="50">sho</tspan><tspan x="79.8" y="0" fill="#39BFC2" font-family="'Margot-Regular'" font-size="50" letter-spacing="-1">u</tspan><tspan x="107.4" y="0" fill="#39BFC2" font-family="'Margot-Regular'" font-size="50" letter-spacing="-1">l</tspan><tspan x="118.2" y="0" fill="#39BFC2" font-family="'Margot-Regular'" font-size="50">da </tspan></text>
	</g>
</g>
<g id="Layer_2" display="none">
</g>
</svg>
