<?xml version="1.0" encoding="utf-8"?>
<!-- Generator: Adobe Illustrator 17.1.0, SVG Export Plug-In . SVG Version: 6.00 Build 0)  -->
<!DOCTYPE svg PUBLIC "-//W3C//DTD SVG 1.1//EN" "http://www.w3.org/Graphics/SVG/1.1/DTD/svg11.dtd">
<svg version="1.1" xmlns="http://www.w3.org/2000/svg" xmlns:xlink="http://www.w3.org/1999/xlink" x="0px" y="0px"
	 viewBox="0 0 300 78.1" enable-background="new 0 0 300 78.1" xml:space="preserve">
<g id="Layer_1">
	<g>
		<path fill="#39BFC2" d="M101.7,25.7c0-1.9-2.2-2.3-4.9-2.4c-5.8-0.4-9.6-2.4-9.7-8.2c-0.2-11.5,20.4-11.5,20.3,0
			c-2.4,0-4.1,0-6.5,0c0-3.5-7.1-3.2-7.4-0.1c-0.2,2,1.8,2.4,4.2,2.7c5.3,0.6,10.4,1.4,10.4,8c0,11.2-21.7,11.4-21.5-0.3
			c2.3,0,4.3,0,6.6,0C93.4,28.8,101.7,28.9,101.7,25.7z"/>
		<path fill="#39BFC2" d="M133.9,33.6c-2.3,0-4.6,0-7,0V22.9h-8.2v10.7c-2.3,0-4.7,0-7,0V7c2.3,0,4.6,0,7,0v9.7h8.2V7
			c2.3,0,4.6,0,7,0V33.6z"/>
		<path fill="#39BFC2" d="M137.5,20.3c0-18.4,27.3-18.4,27.3,0C164.8,38.7,137.5,38.7,137.5,20.3z M157.8,20.3
			c0-9.6-13.3-9.6-13.3,0C144.5,30,157.8,30,157.8,20.3z"/>
		<path fill="#39BFC2" d="M182.7,24.6V7c2.2,0,4.4,0,6.5,0v17.7c0,5.9-5.1,9.2-10.5,9.2c-5.4,0-10.6-3.4-10.6-9.2V7
			c2.1,0,4.4,0,6.5,0v17.6c0,2.2,2.1,3.2,4.1,3.2S182.7,26.8,182.7,24.6z"/>
		<path fill="#39BFC2" d="M200.4,27.4h9.7c0,2.3,0,3.8,0,6.1c-5.5,0-11.1,0-16.5,0V7c2.3,0,4.5,0,6.8,0
			C200.4,20.7,200.4,16.1,200.4,27.4z"/>
		<path fill="#39BFC2" d="M223.2,33.6h-10V7h10C240.5,7,240.5,33.5,223.2,33.6z M219.9,27.4h3.2c8.5,0,8.5-14.2,0-14.2h-3.2V27.4z"
			/>
		<path fill="#39BFC2" d="M255.1,30.2h-10.5l-1.6,3.3h-6.6v-1l12-26h2.9l12,26v1h-6.6L255.1,30.2z M249.8,17.4l-3,7h6.1L249.8,17.4z
			"/>
		<path fill="#39BFC2" d="M112.1,43.9h2.4v26.7c-2.3,0-4.6,0-7,0V58.7l-5.7,5.9h-0.8l-5.6-5.9v11.9c-2.3,0-4.6,0-7,0V43.9h2.5
			l10.4,11.5L112.1,43.9z"/>
		<path fill="#39BFC2" d="M135.1,67.2h-10.5l-1.6,3.3h-6.6v-1l12-26h2.9l12,26v1h-6.6L135.1,67.2z M129.8,54.4l-3,7h6.1L129.8,54.4z
			"/>
		<path fill="#39BFC2" d="M141.4,50c0-2.1,0-4.1,0-6.1h19.8c0,2,0,4,0,6.1h-6.5v20.5c-2.2,0-4.5,0-6.7,0V50H141.4z"/>
		<path fill="#39BFC2" d="M175.4,43.7c5.5,0,11.5,3,12.5,10.1c-2.3,0-4.4,0-6.7,0c-1-2.7-3-3.9-5.8-3.9c-4,0-6.6,3-6.6,7.4
			c0,3.9,2.6,7.3,6.6,7.4c2.9,0,5.2-1.4,5.9-4.3c2.3,0,4.4,0,6.7,0c-1,7.5-7,10.5-12.6,10.5c-6.8,0-13.6-4.5-13.6-13.6
			C161.8,48.2,168.6,43.7,175.4,43.7z"/>
		<path fill="#39BFC2" d="M213.8,70.6c-2.3,0-4.6,0-7,0V59.9h-8.2v10.7c-2.3,0-4.7,0-7,0V44c2.3,0,4.6,0,7,0v9.7h8.2V44
			c2.3,0,4.6,0,7,0V70.6z"/>
		<path fill="#39BFC2" d="M235.6,50c-4,0-5.9,0-9.8,0v3.8h9c0,2,0,4,0,6h-9c0,1.6,0,3.1,0,4.7c3.9,0,6.2,0,10.2,0c0,2,0,4,0,6
			c-6.2,0-10.8,0-16.9,0c0-8.9,0-17.8,0-26.6c6.2,0,10.4,0,16.6,0C235.6,45.9,235.6,48,235.6,50z"/>
		<path fill="#39BFC2" d="M262.7,69.6v1h-7.6l-4.6-7.8H247v7.8c-2.3,0-4.6,0-6.8,0c0-8.9,0-17.7,0-26.6c3.8,0,7.8,0,11.7,0
			c10.4,0,12.3,12.6,5.6,17.2L262.7,69.6z M251.9,50c-1.6,0-3.3,0-4.9,0c0,2.2,0,4.5,0,6.6h4.9C255.6,56.7,255.8,50.1,251.9,50z"/>
		<path fill="#39BFC2" d="M278.3,62.7c0-1.9-2.2-2.3-4.9-2.4c-5.8-0.4-9.6-2.4-9.7-8.2c-0.2-11.5,20.4-11.5,20.3,0
			c-2.4,0-4.1,0-6.5,0c0-3.5-7.1-3.2-7.4-0.1c-0.2,2,1.8,2.4,4.2,2.7c5.3,0.6,10.4,1.4,10.4,8c0,11.2-21.7,11.4-21.5-0.3
			c2.3,0,4.3,0,6.6,0C270,65.8,278.3,65.9,278.3,62.7z"/>
	</g>
	<g>
		<g>
			<path fill="#F15F30" d="M30.4,68.3c0-0.1,0.1-0.2,0.1-0.3c0,0,0,0,0,0c0-0.1,0.1-0.2,0.1-0.3c0.1-0.2,0.2-0.4,0.2-0.7
				c0-0.1,0.1-0.2,0.1-0.3c0-0.1,0-0.2,0.1-0.3c0.3-1.5,0.1-3-0.4-4.4l-7-17.2l18.7-26.6c1.4-2,0.9-4.7-1.1-6l-8.5-6
				c-2-1.4-4.7-0.9-6,1.1L2,42.3l10.9,26.9c0.4,0.9,0.9,1.8,1.6,2.5c0.1,0.1,0.2,0.2,0.3,0.3c0.1,0.1,0.2,0.2,0.3,0.2
				c0.2,0.2,0.4,0.3,0.5,0.4c0,0,0,0,0,0l0,0c0.1,0.1,0.2,0.1,0.3,0.2c0.1,0.1,0.2,0.1,0.3,0.2c2.1,1.2,4.7,1.5,7,0.5l3-1.2
				C28.1,71.5,29.5,70.1,30.4,68.3z M23.1,15.8l0.9-1.3l12.3,8.6l-0.9,1.3 M25.1,12.9l0.9-1.3l12.3,8.6l-0.9,1.3L25.1,12.9z
				 M31.6,7.7l8.5,6c1.1,0.7,1.3,2.2,0.6,3.2l-1.1,1.6L27.2,9.9l1.1-1.6C29.1,7.3,30.5,7,31.6,7.7z M21.9,17.4l12.3,8.6L21.3,44.5
				l7.4,18.3c0.3,0.8,0.5,1.7,0.4,2.6l0,0c-4.7-1.9-10.2-0.4-13.3,3.9c-0.1,0.2-0.2,0.3-0.3,0.5c-0.3-0.4-0.6-0.8-0.8-1.3L4.3,42.6
				 M25.5,70.4l-3,1.2c-1.8,0.7-3.8,0.5-5.4-0.5c0.1-0.2,0.3-0.5,0.5-0.7c2.5-3.6,7.3-4.8,11.1-3.1C28,68.7,26.9,69.8,25.5,70.4z"/>
		</g>
		<g>
			<g>
				<path fill="#39BFC2" d="M72.2,63.7c0-0.1,0-0.2,0-0.3c0,0,0,0,0,0c0-0.1,0-0.2,0-0.3c0-0.2,0-0.5,0-0.7c0-0.1,0-0.2,0-0.3
					c0-0.1,0-0.2,0-0.4c-0.2-1.5-0.9-2.8-1.8-4L58,43.7l9-31.3c0.7-2.3-0.7-4.7-3-5.4L54,4.2c-2.3-0.7-4.7,0.7-5.4,3L36.9,48.4
					L56,70.2c0.7,0.8,1.5,1.4,2.4,1.8c0.1,0.1,0.2,0.1,0.3,0.2c0.1,0,0.2,0.1,0.3,0.1c0.2,0.1,0.4,0.2,0.7,0.2c0,0,0,0,0,0l0,0
					c0.1,0,0.2,0,0.3,0.1c0.1,0,0.2,0.1,0.3,0.1c2.4,0.5,4.9-0.1,6.7-1.8l2.5-2.2C71,67.5,72,65.7,72.2,63.7z M48.1,16.5l0.4-1.5
					L63,19.1l-0.4,1.5 M49.1,13l0.4-1.5L64,15.6l-0.4,1.5L49.1,13z M63.5,8.9c1.2,0.4,2,1.6,1.6,2.9l-0.5,1.9L50.1,9.6l0.5-1.9
					c0.4-1.2,1.6-2,2.9-1.6 M58.8,69.3c-0.1,0.2-0.1,0.4-0.1,0.6c-0.4-0.3-0.8-0.6-1.2-1l-18.4-21l8.5-29.5L62,22.5l-6.2,21.6
					l13,14.8c0.6,0.7,1,1.5,1.2,2.3l0,0C65,61,60.2,64.3,58.8,69.3z M68.2,67.3l-2.5,2.2c-1.5,1.3-3.4,1.7-5.3,1.3
					c0.1-0.3,0.1-0.6,0.2-0.8c1.2-4.2,5.3-6.9,9.5-6.5C70.1,64.9,69.4,66.3,68.2,67.3z"/>
			</g>
		</g>
	</g>
</g>
<g id="Layer_2" display="none">
</g>
</svg>
