<?xml version="1.0" encoding="utf-8"?>
<!-- Generator: Adobe Illustrator 18.0.0, SVG Export Plug-In . SVG Version: 6.00 Build 0)  -->
<!DOCTYPE svg PUBLIC "-//W3C//DTD SVG 1.1//EN" "http://www.w3.org/Graphics/SVG/1.1/DTD/svg11.dtd">
<svg version="1.1" xmlns="http://www.w3.org/2000/svg" xmlns:xlink="http://www.w3.org/1999/xlink" x="0px" y="0px"
	 viewBox="0 0 308.1 78.1" enable-background="new 0 0 308.1 78.1" xml:space="preserve">
<g id="Layer_1">
	<g>
		<path fill="#F2917E" d="M94.6,24.9c0,1.3-0.5,2.3-1.5,3c-1,0.7-2.4,1-4.2,1c-1.9,0-3.4-0.3-4.6-0.9v-1.4c1.4,0.7,3,1.1,4.6,1.1
			c1.4,0,2.5-0.2,3.2-0.7c0.7-0.5,1.1-1.1,1.1-1.9c0-0.7-0.3-1.3-0.9-1.8c-0.6-0.5-1.5-1-2.9-1.5c-1.4-0.5-2.4-1-3-1.3
			c-0.6-0.4-1-0.8-1.3-1.3c-0.3-0.5-0.4-1-0.4-1.7c0-1.1,0.5-1.9,1.4-2.5c0.9-0.6,2.2-0.9,3.8-0.9c1.5,0,3,0.3,4.4,0.9l-0.5,1.2
			c-1.4-0.6-2.7-0.9-3.9-0.9c-1.2,0-2.1,0.2-2.8,0.6c-0.7,0.4-1,0.9-1,1.6c0,0.7,0.3,1.3,0.8,1.8c0.5,0.4,1.6,0.9,3.1,1.5
			c1.3,0.5,2.2,0.9,2.8,1.3c0.6,0.4,1,0.8,1.3,1.3C94.4,23.7,94.6,24.3,94.6,24.9z"/>
		<path fill="#F2917E" d="M107.1,28.6v-9.3c0-1.4-0.3-2.5-0.9-3.1c-0.6-0.7-1.5-1-2.8-1c-1.7,0-3,0.4-3.8,1.3
			c-0.8,0.9-1.2,2.3-1.2,4.2v7.9h-1.3V8.1h1.3v6.5l-0.1,1.8h0.1c0.5-0.9,1.2-1.5,2-1.9c0.8-0.4,1.8-0.6,3-0.6c3.3,0,4.9,1.7,4.9,5.2
			v9.4H107.1z"/>
		<path fill="#F2917E" d="M123.1,21.5c0,2.3-0.6,4.2-1.7,5.5c-1.1,1.3-2.7,2-4.7,2c-1.3,0-2.4-0.3-3.3-0.9c-1-0.6-1.7-1.5-2.2-2.6
			c-0.5-1.1-0.8-2.4-0.8-3.9c0-2.3,0.6-4.2,1.7-5.5c1.1-1.3,2.7-2,4.7-2c2,0,3.5,0.7,4.6,2C122.5,17.3,123.1,19.2,123.1,21.5z
			 M111.7,21.5c0,2,0.4,3.5,1.3,4.6c0.9,1.1,2.1,1.7,3.7,1.7s2.8-0.6,3.7-1.7c0.9-1.1,1.3-2.6,1.3-4.6c0-2-0.4-3.5-1.3-4.6
			c-0.9-1.1-2.1-1.6-3.7-1.6s-2.8,0.5-3.7,1.6C112.2,17.9,111.7,19.5,111.7,21.5z"/>
		<path fill="#F2917E" d="M127,14.3v9.3c0,1.4,0.3,2.5,0.9,3.1c0.6,0.7,1.5,1,2.8,1c1.7,0,3-0.4,3.8-1.3c0.8-0.9,1.2-2.3,1.2-4.2
			v-7.9h1.3v14.3h-1.1l-0.2-2h-0.1c-0.9,1.5-2.6,2.2-5,2.2c-3.3,0-4.9-1.7-4.9-5.2v-9.4H127z"/>
		<path fill="#F2917E" d="M141.6,28.6h-1.3V8.1h1.3V28.6z"/>
		<path fill="#F2917E" d="M150.5,14c1,0,1.9,0.2,2.7,0.6c0.8,0.4,1.4,1,2,1.9h0.1c-0.1-1.1-0.1-2.2-0.1-3.3V8.1h1.3v20.5h-0.9
			l-0.3-2.2h-0.1c-1.1,1.6-2.7,2.5-4.7,2.5c-2,0-3.5-0.6-4.5-1.8s-1.6-3-1.6-5.4c0-2.5,0.5-4.4,1.6-5.7C147,14.7,148.5,14,150.5,14z
			 M150.5,15.2c-1.6,0-2.7,0.5-3.5,1.6c-0.8,1.1-1.2,2.7-1.2,4.8c0,4.1,1.6,6.1,4.7,6.1c1.6,0,2.8-0.5,3.6-1.4s1.1-2.5,1.1-4.7v-0.2
			c0-2.2-0.4-3.8-1.1-4.8C153.4,15.7,152.2,15.2,150.5,15.2z"/>
		<path fill="#F2917E" d="M168.5,28.6l-0.3-2.3h-0.1c-0.7,0.9-1.5,1.6-2.2,2c-0.8,0.4-1.7,0.6-2.7,0.6c-1.4,0-2.5-0.4-3.3-1.1
			s-1.2-1.7-1.2-3c0-1.4,0.6-2.5,1.7-3.3c1.2-0.8,2.8-1.2,5.1-1.2l2.7-0.1v-0.9c0-1.4-0.3-2.4-0.8-3.1c-0.6-0.7-1.4-1-2.7-1
			c-1.3,0-2.7,0.4-4.1,1.1l-0.5-1.1c1.6-0.7,3.1-1.1,4.7-1.1c1.6,0,2.7,0.4,3.5,1.2c0.8,0.8,1.2,2.1,1.2,3.8v9.5H168.5z M163.2,27.7
			c1.5,0,2.7-0.4,3.6-1.3c0.9-0.9,1.3-2.1,1.3-3.6v-1.4l-2.5,0.1c-2,0.1-3.4,0.4-4.3,0.9c-0.9,0.5-1.3,1.4-1.3,2.5
			c0,0.9,0.3,1.6,0.8,2.1C161.4,27.5,162.2,27.7,163.2,27.7z"/>
		<path fill="#39BFC2" d="M108,53.7c-1.3,2.5-2.7,5.1-4.1,7.7c-0.2,0.5-0.5,0.9-0.7,1.3c-0.2,0.4-0.5,0.7-0.7,0.8
			c-0.2,0.1-0.4,0.1-0.7,0.2c-0.2,0-0.5,0-0.8,0s-0.5,0-0.8,0s-0.5-0.1-0.7-0.2c-0.3-0.1-0.5-0.4-0.7-0.8c-0.2-0.4-0.4-0.9-0.7-1.3
			c-1.4-2.5-2.8-5-4.1-7.7c-1.4-2.6-2.7-5.1-4.1-7.5V68c0,0.4,0,0.8-0.1,1s-0.1,0.4-0.3,0.5c-0.2,0.1-0.4,0.1-0.7,0.2
			c-0.3,0-0.7,0-1.2,0c-0.4,0-0.8,0-1.1,0c-0.3,0-0.5-0.1-0.7-0.2c-0.2-0.1-0.3-0.3-0.3-0.5c-0.1-0.2-0.1-0.5-0.1-1V38.6h-2.5v-2.3
			c0.3-0.3,0.7-0.5,1.1-0.8c0.4-0.2,0.8-0.4,1.3-0.5c0.5-0.2,1.1-0.3,1.8-0.3c0.6,0,1,0.1,1.3,0.4h0c0.4,0.2,0.7,0.6,1,1.1
			c0.3,0.5,0.6,1,0.9,1.5c1.7,3.3,3.5,6.5,5.3,9.8s3.5,6.6,5.3,9.8c1.7-3.2,3.4-6.5,5.2-9.8s3.6-6.6,5.4-9.8c0.3-0.5,0.6-1,0.9-1.5
			s0.6-0.9,1-1.1c0.4-0.3,0.9-0.4,1.4-0.4c0.6,0,1.1,0.1,1.4,0.3c0.3,0.2,0.4,0.5,0.4,0.8l0,28.9v2.7h2.4v2c-0.5,0.2-1,0.3-1.4,0.3
			c-0.4,0.1-0.9,0.1-1.4,0.2c-0.5,0.1-1.1,0.1-1.7,0c-0.7-0.1-1.2-0.2-1.5-0.6c-0.3-0.3-0.6-0.6-0.7-1c-0.1-0.4-0.2-0.8-0.2-1.4
			v-1.6v-0.4v-19C110.7,48.7,109.3,51.2,108,53.7z"/>
		<path fill="#39BFC2" d="M125.2,68.6c-0.3,0.8-0.6,1.2-1,1.3s-0.9-0.1-1.7-0.3c-0.5-0.2-0.8-0.3-1.1-0.4c-0.3-0.1-0.5-0.2-0.6-0.3
			c-0.1-0.1-0.1-0.3-0.1-0.5c0-0.2,0.1-0.6,0.3-1l10-30.1c0.1-0.3,0.2-0.6,0.4-1s0.3-0.6,0.5-0.7c0.2-0.1,0.4-0.1,0.6-0.1
			s0.5,0,0.9,0h2.4c0.3,0,0.7,0,1,0s0.7,0.1,0.9,0.2c0.2,0.1,0.4,0.3,0.5,0.7c0.2,0.4,0.3,0.7,0.4,1l10.2,30.1h2.5v2
			c0,0-0.4,0.1-1.1,0.3c-0.7,0.2-1.7,0.3-2.9,0.2c-0.6-0.1-1.1-0.2-1.6-0.4c-0.5-0.2-0.8-0.5-0.9-0.8c-0.2-0.3-0.4-0.8-0.6-1.5
			c-0.3-0.7-0.6-1.5-0.9-2.4c-0.4-0.9-0.7-2-1.2-3.2c-0.4-1.2-0.8-2.4-1.3-3.6h-12.1L125.2,68.6z M134.7,38.6
			c-0.1,0.4-0.3,1-0.6,1.8c-0.3,0.8-0.6,1.7-0.9,2.7s-0.7,2-1,3.1c-0.4,1.1-0.7,2.1-1,3.1c-0.3,1-0.6,1.9-0.9,2.7
			c-0.2,0.8-0.4,1.4-0.5,1.9h9.6c-0.3-1.1-0.6-2.1-0.9-3.1c-0.3-0.9-0.6-2-0.9-3.1c-0.4-1.1-0.8-2.4-1.2-3.8S135.4,40.6,134.7,38.6z
			"/>
		<path fill="#39BFC2" d="M148,39.2c-0.4,0-0.8,0-1-0.1c-0.2,0-0.4-0.1-0.5-0.3c-0.1-0.2-0.1-0.4-0.2-0.6c0-0.3,0-0.6,0-1
			c0-0.7,0.1-1.2,0.2-1.4s0.6-0.4,1.4-0.4h21.3c0.8,0,1.3,0.1,1.4,0.4c0.1,0.3,0.2,0.7,0.2,1.4c0,0.4,0,0.8,0,1
			c0,0.3-0.1,0.5-0.2,0.6c-0.1,0.2-0.3,0.3-0.5,0.3c-0.2,0-0.6,0.1-1,0.1h-8.6V68c0,0.4,0,0.8-0.1,1s-0.1,0.4-0.3,0.5
			c-0.2,0.1-0.4,0.1-0.7,0.2c-0.3,0-0.7,0-1.2,0c-0.4,0-0.8,0-1.1,0c-0.3,0-0.5-0.1-0.7-0.2s-0.3-0.3-0.3-0.5
			c-0.1-0.2-0.1-0.5-0.1-1V39.2H148z"/>
		<path fill="#39BFC2" d="M182.4,65.9c1.7,0,3.2-0.1,4.5-0.3c1.3-0.2,2.5-0.5,3.6-0.8c0.6-0.2,1.1-0.3,1.4-0.5
			c0.4-0.1,0.6-0.2,0.9-0.2c0.2,0,0.4,0.1,0.6,0.4c0.2,0.2,0.3,0.7,0.6,1.2c0.2,0.6,0.3,1.1,0.3,1.5c0,0.4-0.2,0.7-0.5,1
			c-0.4,0.3-0.9,0.5-1.6,0.7c-0.7,0.2-1.7,0.4-2.9,0.6c-1,0.2-1.9,0.3-2.8,0.4c-0.9,0.1-1.6,0.1-2.3,0.1c-2.4,0.1-4.5-0.3-6.2-1.1
			s-3.1-2-4.1-3.6c-1-1.6-1.8-3.4-2.5-5.6c-0.6-2.1-0.9-4.5-0.9-7.2c0.1-3.9,0.8-7.3,2.3-10.1c1.5-2.8,3.5-4.9,6.2-6.3
			c1.9-1,4-1.4,6.2-1.3c2.2,0.1,4.4,0.5,6.5,1.2c0.6,0.2,1.2,0.4,1.6,0.5c0.4,0.1,0.7,0.3,0.9,0.5c0.2,0.2,0.3,0.4,0.2,0.7
			c0,0.3-0.2,0.6-0.4,1.1c-0.3,0.7-0.5,1.2-0.7,1.5c-0.2,0.3-0.4,0.5-0.6,0.5s-0.5,0-0.8-0.1c-0.3-0.1-0.8-0.3-1.4-0.5
			c-1.1-0.3-2.1-0.6-3-0.8c-0.9-0.2-1.6-0.3-2.3-0.3c-0.6-0.1-1.3,0-2,0.1c-0.7,0.1-1.4,0.4-2.1,0.7c-1.4,0.6-2.6,1.7-3.5,3.1
			s-1.6,3-2,4.6c-0.4,1.6-0.6,3.8-0.6,6.8c0,2.9,0.7,5.5,1.9,7.9c0.6,1.2,1.4,2.1,2.3,2.7C180.1,65.5,181.2,65.8,182.4,65.9z"/>
		<path fill="#39BFC2" d="M202,69c0,0.2-0.1,0.4-0.3,0.5c-0.2,0.1-0.4,0.1-0.7,0.2c-0.3,0-0.7,0-1.2,0c-0.4,0-0.8,0-1.1,0
			c-0.3,0-0.5-0.1-0.7-0.2s-0.3-0.3-0.3-0.5c-0.1-0.2-0.1-0.5-0.1-1V37c0-0.4,0-0.7,0.1-0.9c0.1-0.2,0.2-0.4,0.3-0.5
			c0.2-0.1,0.4-0.2,0.7-0.2c0.3,0,0.7,0,1.1,0c0.5,0,0.9,0,1.2,0c0.3,0,0.5,0.1,0.7,0.2s0.3,0.3,0.3,0.5c0,0.2,0.1,0.6,0.1,1v13.1
			h14.6V37c0-0.4,0-0.7,0.1-0.9c0.1-0.2,0.2-0.4,0.3-0.5c0.2-0.1,0.4-0.2,0.7-0.2c0.3,0,0.7,0,1.1,0c0.5,0,0.9,0,1.2,0
			c0.3,0,0.5,0.1,0.7,0.2s0.3,0.3,0.3,0.5c0,0.2,0.1,0.6,0.1,1v31c0,0.4,0,0.8-0.1,1c0,0.2-0.1,0.4-0.3,0.5
			c-0.2,0.1-0.4,0.1-0.7,0.2c-0.3,0-0.7,0-1.2,0c-0.4,0-0.8,0-1.1,0c-0.3,0-0.5-0.1-0.7-0.2s-0.3-0.3-0.3-0.5
			c-0.1-0.2-0.1-0.5-0.1-1V54.2H202V68C202,68.4,202,68.8,202,69z"/>
		<path fill="#39BFC2" d="M232.1,68.9c-1.4-0.5-2.5-1.1-3.3-2s-1.4-1.8-1.8-2.9c-0.4-1.1-0.6-2.3-0.6-3.5v-22v0
			c-1.5-0.2-2.4-0.5-2.5-1v-2.2h21.5c0.8,0,1.3,0.1,1.4,0.4c0.1,0.3,0.2,0.7,0.2,1.4c0,0.4,0,0.8,0,1.1c0,0.3-0.1,0.5-0.2,0.7
			c-0.1,0.2-0.3,0.3-0.5,0.4c-0.2,0.1-0.6,0.1-1,0.1h-14.6V50H243c0.8,0,1.3,0.1,1.4,0.4c0.1,0.3,0.2,0.8,0.2,1.5c0,0.4,0,0.8,0,1.1
			c0,0.3-0.1,0.5-0.2,0.7c-0.1,0.2-0.3,0.3-0.5,0.4c-0.2,0.1-0.6,0.1-1,0.1h-12.2v6.3c0,1,0.2,1.9,0.6,2.5c0.4,0.6,0.9,1.2,1.6,1.5
			c0.7,0.4,1.4,0.6,2.3,0.7c0.9,0.1,1.9,0.2,2.9,0.2h7.3c0.8,0,1.3,0.1,1.4,0.4c0.1,0.3,0.2,0.7,0.2,1.4c0,0.4,0,0.8,0,1.1
			c0,0.3-0.1,0.5-0.2,0.7c-0.1,0.2-0.3,0.3-0.5,0.4c-0.2,0.1-0.6,0.1-1,0.1h-8.3C235.1,69.6,233.4,69.4,232.1,68.9z"/>
		<path fill="#39BFC2" d="M268.1,55.6c0.5,1.1,0.9,2.3,1.4,3.6s1,2.5,1.4,3.6c0.5,1.1,0.9,2.1,1.2,2.9c0.4,0.8,0.6,1.4,0.8,1.6h2.5
			v2c0,0-0.4,0.1-1.2,0.3c-0.7,0.2-1.7,0.3-2.9,0.2c-0.6-0.1-1.2-0.2-1.7-0.4c-0.6-0.2-0.9-0.5-1.1-0.8c-0.1-0.2-0.4-0.8-0.8-1.6
			c-0.4-0.9-0.8-1.9-1.3-3.1c-0.5-1.2-1-2.5-1.6-3.9c-0.6-1.4-1.1-2.7-1.6-4h-0.7c-1.3,0-2.4,0-3.3-0.1s-1.4-0.1-1.8-0.2
			c-0.8-0.2-1.5-0.6-2.1-1.2V68c0,0.4,0,0.8-0.1,1s-0.1,0.4-0.3,0.5c-0.2,0.1-0.4,0.1-0.7,0.2c-0.3,0-0.7,0-1.2,0
			c-0.4,0-0.8,0-1.1,0c-0.3,0-0.5-0.1-0.7-0.2c-0.2-0.1-0.3-0.3-0.3-0.5c-0.1-0.2-0.1-0.5-0.1-1V38.5c-1.5-0.2-2.4-0.5-2.5-1v-2.2
			h15c3.4,0,6,0.8,7.6,2.3s2.5,3.8,2.5,6.9v2.7C273.9,51.7,272,54.5,268.1,55.6z M263.4,51.9c1.9,0,3.3-0.5,4.3-1.4
			c1-0.9,1.5-2.3,1.5-4v-1.7c0-1.7-0.5-3.1-1.4-4c-1-1-2.4-1.4-4.3-1.4h-7.8v11.9c0.9,0.2,1.8,0.3,2.6,0.5c0.8,0.1,1.7,0.2,2.7,0.2
			H263.4z"/>
		<path fill="#39BFC2" d="M287.7,39.1c-2.5-0.2-4.2,0.4-5.4,1.8c-1.1,1.3-1.5,2.9-1.2,4.8s2.4,3.1,6.4,3.8c4.1,0.7,6.7,1.4,7.8,2.1
			c1.2,0.7,2,1.6,2.6,2.7c0.6,1.1,0.9,2.8,0.8,5c0,1.1-0.1,2.1-0.2,2.9s-0.2,1.6-0.4,2.2c-0.2,0.6-0.4,1.2-0.8,1.7s-0.8,1-1.3,1.4
			c-1,0.8-2.3,1.5-4,1.9c-0.8,0.2-1.6,0.3-2.6,0.4s-1.9,0.1-2.9,0.1c-1.1,0-2.2-0.2-3.4-0.4c-1.2-0.2-2.6-0.5-4-1
			c-0.6-0.2-1.2-0.3-1.6-0.5c-0.4-0.1-0.7-0.3-0.9-0.5c-0.2-0.2-0.2-0.4-0.2-0.7c0-0.3,0.1-0.6,0.3-1.1c0.3-0.7,0.5-1.2,0.7-1.5
			c0.2-0.3,0.4-0.5,0.7-0.5c0.3,0,0.6,0,1.1,0.2c0.4,0.2,1.1,0.4,1.9,0.6c2.1,0.7,4.3,1,6.5,1c1.4,0,2.6-0.2,3.5-0.5
			c0.9-0.3,1.6-0.7,2-1.2c0.9-1,1.3-2.4,1.4-4c0-1.7-0.1-2.8-0.4-3.4s-1-1-2-1.4c-1-0.4-2.7-0.9-5-1.3c-1.1-0.2-2.1-0.5-3-0.7
			s-1.6-0.4-2.2-0.7c-1.2-0.4-2.2-1-3.1-1.7c-0.9-0.7-1.5-1.6-1.8-2.6c-0.2-0.5-0.3-1.2-0.3-2c0-0.8,0-1.8,0.1-2.9
			c0.2-2.2,1.2-4.1,2.9-5.9c1.8-1.7,4.4-2.6,8-2.5c2.6,0.1,5.2,0.4,7.7,1l1.2,0.3c0.6,0.2,0.9,0.4,0.9,0.8c0,0.4-0.1,1-0.3,1.7
			c-0.2,0.5-0.3,0.8-0.3,1.1c0,0.3-0.1,0.4-0.3,0.5c-0.1,0.1-0.4,0.1-0.6,0c-0.3-0.1-0.7-0.2-1.4-0.3c-0.8-0.2-1.8-0.4-3-0.6
			C290.6,39.4,289.3,39.2,287.7,39.1z"/>
	</g>
	<g>
		<g>
			<path fill="#F15F30" d="M33.3,67.1c0-0.1,0.1-0.2,0.1-0.3c0,0,0,0,0,0c0-0.1,0.1-0.2,0.1-0.3c0.1-0.2,0.1-0.4,0.2-0.6
				c0-0.1,0.1-0.2,0.1-0.3c0-0.1,0-0.2,0.1-0.3c0.3-1.4,0.1-2.8-0.4-4.2l-6.7-16.6l18-25.6c1.3-1.9,0.9-4.5-1-5.8l-8.2-5.7
				c-1.9-1.3-4.5-0.9-5.8,1L6,42l10.5,25.8c0.4,0.9,0.9,1.7,1.6,2.4c0.1,0.1,0.2,0.2,0.2,0.2c0.1,0.1,0.2,0.2,0.3,0.2
				c0.2,0.1,0.3,0.3,0.5,0.4c0,0,0,0,0,0l0,0c0.1,0.1,0.2,0.1,0.2,0.1c0.1,0.1,0.2,0.1,0.3,0.2c2,1.2,4.5,1.4,6.7,0.5l2.9-1.2
				C31.1,70.1,32.5,68.8,33.3,67.1z M26.3,16.5l0.9-1.2L39,23.6l-0.9,1.2 M28.2,13.7l0.9-1.2L41,20.8L40.1,22L28.2,13.7z M34.4,8.8
				l8.2,5.7c1,0.7,1.3,2.1,0.5,3.1l-1.1,1.6l-11.8-8.3l1.1-1.6C32,8.3,33.4,8.1,34.4,8.8z M25.2,18.1L37,26.4L24.5,44.1l7.1,17.6
				c0.3,0.8,0.5,1.7,0.4,2.5l0,0c-4.5-1.8-9.8-0.4-12.8,3.7c-0.1,0.2-0.2,0.3-0.3,0.5c-0.3-0.4-0.5-0.8-0.7-1.3L8.2,42.3 M28.6,69.1
				l-2.9,1.2c-1.7,0.7-3.6,0.5-5.2-0.5c0.1-0.2,0.3-0.5,0.4-0.7c2.4-3.5,7-4.6,10.7-2.9C31,67.4,29.9,68.5,28.6,69.1z"/>
		</g>
		<g>
			<g>
				<path fill="#39BFC2" d="M73.5,62.6c0-0.1,0-0.2,0-0.3c0,0,0,0,0,0c0-0.1,0-0.2,0-0.3c0-0.2,0-0.5,0-0.7c0-0.1,0-0.2,0-0.3
					c0-0.1,0-0.2,0-0.3c-0.2-1.4-0.8-2.7-1.8-3.8L59.9,43.3l8.6-30.1c0.6-2.2-0.6-4.5-2.9-5.2l-9.6-2.7c-2.2-0.6-4.5,0.6-5.2,2.9
					L39.5,47.9l18.4,21c0.6,0.7,1.4,1.3,2.3,1.8c0.1,0.1,0.2,0.1,0.3,0.2c0.1,0,0.2,0.1,0.3,0.1c0.2,0.1,0.4,0.2,0.6,0.2
					c0,0,0,0,0,0l0,0c0.1,0,0.2,0,0.3,0.1c0.1,0,0.2,0,0.3,0.1c2.3,0.5,4.7-0.1,6.5-1.7l2.4-2.1C72.4,66.2,73.3,64.5,73.5,62.6z
					 M50.3,17.2l0.4-1.5l13.9,4l-0.4,1.5 M51.3,13.9l0.4-1.5l13.9,4l-0.4,1.5L51.3,13.9z M65.1,9.9c1.2,0.3,1.9,1.6,1.5,2.8
					l-0.5,1.8l-13.9-4l0.5-1.8c0.3-1.2,1.6-1.9,2.8-1.5 M60.6,68c-0.1,0.2-0.1,0.4-0.1,0.6c-0.4-0.3-0.8-0.6-1.1-1L41.7,47.4
					L49.8,19l13.9,4l-6,20.8l12.5,14.3c0.6,0.7,1,1.4,1.2,2.2l0,0C66.6,60,62,63.1,60.6,68z M69.7,66.1l-2.4,2.1
					c-1.4,1.2-3.3,1.7-5.1,1.2c0.1-0.3,0.1-0.5,0.2-0.8c1.2-4.1,5.1-6.7,9.2-6.3C71.5,63.7,70.8,65.1,69.7,66.1z"/>
			</g>
		</g>
	</g>
</g>
<g id="Layer_2" display="none">
</g>
</svg>
