<?xml version="1.0" encoding="utf-8"?>
<!-- Generator: Adobe Illustrator 18.0.0, SVG Export Plug-In . SVG Version: 6.00 Build 0)  -->
<!DOCTYPE svg PUBLIC "-//W3C//DTD SVG 1.1//EN" "http://www.w3.org/Graphics/SVG/1.1/DTD/svg11.dtd">
<svg version="1.1" id="Layer_1" xmlns="http://www.w3.org/2000/svg" xmlns:xlink="http://www.w3.org/1999/xlink" x="0px" y="0px"
	 viewBox="0 315 612 162" enable-background="new 0 315 612 162" xml:space="preserve">
<g id="Layer_1_1_">
	<g>
		<g>
			<g>
				<path fill="#F15F30" d="M62.8,452.2c0-0.2,0.2-0.4,0.2-0.6l0,0c0-0.2,0.2-0.4,0.2-0.6c0.2-0.4,0.4-0.8,0.4-1.4
					c0-0.2,0.2-0.4,0.2-0.6c0-0.2,0-0.4,0.2-0.6c0.6-2.9,0.2-5.9-0.8-8.8l-14.1-34.5l37.5-53.4c2.7-3.9,1.8-9.4-2-12l-16.9-12
					c-3.9-2.7-9.4-1.8-12,2L6.1,400l21.8,53.9c0.8,1.8,1.8,3.7,3.3,5.1c0.2,0.2,0.4,0.4,0.6,0.6s0.4,0.4,0.6,0.4
					c0.4,0.2,0.8,0.6,1,0.8l0,0l0,0c0.2,0.2,0.4,0.2,0.4,0.4c0.2,0.2,0.4,0.2,0.6,0.4c4.3,2.4,9.4,2.9,13.9,1l6.1-2.4
					C58.3,458.5,61.2,455.7,62.8,452.2z M48.3,346.9l1.8-2.7l24.7,17.3l-1.8,2.7 M52.4,341l1.8-2.7l24.7,17.3l-1.8,2.7L52.4,341z
					 M65.3,330.8l16.9,12c2,1.4,2.7,4.5,1.2,6.5l-2.2,3.3l-24.7-17.3l2.2-3.3C60.4,329.8,63.2,329.4,65.3,330.8z M33.9,454
					c-0.2,0.4-0.4,0.6-0.6,1c-0.6-0.8-1.2-1.6-1.4-2.7l-21.2-51.8l35.3-50.4l24.7,17.3l-25.9,36.9L59.6,441c0.6,1.6,1,3.5,0.8,5.3
					l0,0C51,442.4,40,445.3,33.9,454z M53,456.3l-6.1,2.4c-3.7,1.4-7.5,1-10.8-1c0.2-0.4,0.6-1,1-1.4c5.1-7.1,14.5-9.6,22.2-6.1
					C58.1,453,55.9,455.1,53,456.3z"/>
			</g>
		</g>
		<g>
			<g>
				<g>
					<path fill="#39BFC2" d="M146.7,443c0-0.2,0-0.4,0-0.6l0,0c0-0.2,0-0.4,0-0.6c0-0.4,0-1,0-1.4c0-0.2,0-0.4,0-0.6
						c0-0.2,0-0.4,0-0.6c-0.4-2.9-1.6-5.7-3.7-8l-24.7-28.4l18-62.6c1.2-4.7-1.4-9.4-5.9-10.8l-20-5.7c-4.7-1.2-9.4,1.4-10.8,5.9
						l-23.7,82.6l38.4,43.7c1.4,1.6,3.1,2.9,4.7,3.7c0.2,0.2,0.4,0.2,0.6,0.4c0.2,0,0.4,0.2,0.6,0.2c0.4,0.2,0.8,0.4,1.2,0.4l0,0
						l0,0c0.2,0,0.4,0,0.6,0.2c0.2,0,0.4,0.2,0.6,0.2c4.9,1,9.8-0.2,13.5-3.5l4.9-4.3C144.4,450.6,146.3,446.9,146.7,443z
						 M98.3,348.4l0.8-3.1l29,8.4l-0.8,3.1 M100.4,341.4l0.8-3.1l29,8.4l-0.8,3.1L100.4,341.4z M129.1,333.3
						c2.4,0.6,3.9,3.3,3.3,5.7l-1,3.9l-29-8.4l1-3.9c0.6-2.4,3.3-3.9,5.7-3.3 M119.7,454c-0.2,0.4-0.2,0.8-0.2,1.2
						c-0.8-0.6-1.6-1.2-2.2-2l-36.7-42L97.5,352l29,8.4L114,403.7l25.9,29.6c1.2,1.4,2,2.9,2.4,4.7l0,0
						C132.2,437.5,122.6,444,119.7,454z M138.7,450.2l-4.9,4.3c-2.9,2.4-6.7,3.5-10.6,2.4c0.2-0.6,0.2-1.2,0.4-1.6
						c2.4-8.6,10.6-13.9,19.2-13.1C142.4,445.3,141,448.1,138.7,450.2z"/>
				</g>
			</g>
		</g>
	</g>
	<g opacity="0.96">
		<g enable-background="new    ">
			<path fill="#39BFC2" d="M192.2,382.1c-4.8-0.4-8.2,0.3-10.1,2.1c-1.9,1.8-2.7,4.1-2.3,7c0.5,2.8,2.2,4.6,5.1,5.3
				c4.8,1.1,9.2,2,13.3,2.7c4.1,0.8,7.5,1.9,10.3,3.5c2.1,1.2,3.6,2.8,4.7,4.7c1.1,1.9,1.6,4.7,1.6,8.3c0,3.4-0.3,6.3-0.9,8.6
				c-0.6,2.1-1.8,4.1-3.5,5.8c-1.7,1.7-3.9,3-6.7,3.8c-2.7,0.8-6.7,1.2-12,1c-2.2,0-4.7-0.2-7.6-0.6c-2.9-0.4-6-1.1-9.4-2.1
				c-2.1-0.6-3.5-1.2-4.1-1.8c-0.6-0.6-0.6-1.8,0-3.4c0.5-1.2,0.9-2.2,1.2-2.9c0.3-0.7,0.7-1.1,1.1-1.4c0.4-0.2,1-0.3,1.6-0.2
				c0.6,0.1,1.5,0.2,2.6,0.5c6.4,1.6,11.8,2.5,16.1,2.6s7.3-0.4,8.8-1.7c1.5-1.3,2.4-3.2,2.6-5.7c0.2-1.3,0.2-2.4,0-3.3
				c-0.2-0.9-0.3-1.6-0.6-2.2c-0.3-0.5-0.6-1-1-1.5c-0.4-0.5-0.9-0.9-1.6-1.2c-0.7-0.3-1.6-0.7-2.7-1c-1.1-0.3-2.6-0.6-4.2-0.9
				c-1.7-0.4-3.2-0.7-4.5-0.9c-1.3-0.2-2.5-0.4-3.6-0.6c-9.3-1.5-14.4-5.6-15.3-12.3c-0.9-6.7,0.3-12,3.8-15.8
				c3.4-3.8,8.4-5.6,15-5.5c3.3,0.1,6.5,0.3,9.8,0.6c3.2,0.3,6.5,0.9,9.7,1.7l1.5,0.3c1.1,0.4,1.6,1,1.7,1.9c0,0.9-0.1,2.1-0.5,3.4
				c-0.2,0.8-0.4,1.5-0.6,2c-0.2,0.5-0.3,0.9-0.6,1.2c-0.2,0.3-0.6,0.5-1,0.5c-0.4,0-1-0.1-1.9-0.3c-2.4-0.6-5-1.1-7.5-1.5
				C197.8,382.5,195,382.2,192.2,382.1z"/>
		</g>
		<g enable-background="new    ">
			<path fill="#39BFC2" d="M226.3,432.6c-0.3-0.5-0.5-1.6-0.5-3.4v-81.1c0-1,0.1-1.8,0.2-2.3s0.3-1,0.7-1.3c0.3-0.3,0.9-0.4,1.5-0.5
				c0.7,0,1.6-0.1,2.6-0.1c1.3,0,2.3,0,3,0.1c0.7,0,1.3,0.2,1.7,0.4c0.4,0.2,0.6,0.6,0.7,1.2s0.2,1.4,0.2,2.5v29.5h0.1
				c2.1-2.3,4.2-3.6,6.5-3.9c1.2-0.2,2.7-0.4,4.3-0.6c1.7-0.2,3.6-0.3,5.7-0.3c7.7-0.2,13.3,1.1,16.7,3.7c3.5,2.6,5.2,6.9,5.2,12.8
				v38.4h6.5v5c-0.1,0-1.1,0.3-3,0.9c-1.9,0.6-4.5,0.7-7.7,0.5c-1.8-0.2-3.2-0.6-4.1-1.4c-0.9-0.8-1.5-1.6-1.8-2.5
				c-0.3-0.9-0.5-2-0.5-3.5v-34.5c0-3.6-0.9-6.1-2.8-7.5c-1.9-1.4-4.6-2.2-8.1-2.4c-3.1-0.2-6.1,0-8.8,0.4c-2.7,0.4-5.5,0.9-8.3,1.5
				v45c0,1.8-0.2,2.9-0.6,3.4c-0.4,0.5-1.2,0.7-2.5,0.7h-4.5C227.5,433.4,226.6,433.1,226.3,432.6z"/>
		</g>
		<g enable-background="new    ">
			<path fill="#39BFC2" d="M310.3,434.2c-4.4-0.3-8.3-1.4-11.7-3.2c-4.6-2.4-8.1-6.1-10.3-10.9c-2.2-4.8-3.1-10.8-2.6-18
				c0.3-4.4,1.1-8.5,2.4-12.2c1.3-3.7,3.2-6.9,5.6-9.5c2.4-2.6,5.4-4.6,9-5.9c3.6-1.3,7.8-1.8,12.8-1.5c4.4,0.3,8.2,1.4,11.4,3.2
				c3.2,1.8,5.8,4.2,7.8,7.3c2,3,3.5,6.5,4.3,10.6c0.9,4,1.2,8.4,1.1,13c-0.2,4.4-0.9,8.4-2.2,11.9c-1.3,3.5-3.2,6.4-5.7,8.8
				c-2.5,2.4-5.6,4.1-9.3,5.3C319.3,434.2,315.1,434.5,310.3,434.2z M298.9,418.1c1.1,2.1,2.8,3.6,5,4.7c2.2,1.1,4.7,1.7,7.7,1.9
				c3.4,0.2,6.2,0,8.5-0.8c2.3-0.8,4.1-1.9,5.5-3.5c1.4-1.6,2.5-3.6,3.1-5.9c0.7-2.4,1.1-5,1.1-8c0.1-3.1-0.1-6.1-0.6-8.9
				c-0.5-2.8-1.3-5.2-2.5-7.4c-1.2-2.1-2.8-3.8-4.7-5.1c-2-1.3-4.5-2-7.4-2.1c-3.4-0.2-6.3,0.2-8.6,1.2c-2.3,1-4.2,2.3-5.7,4.2
				c-1.4,1.8-2.5,4-3.2,6.6c-0.7,2.6-1,5.4-1,8.4c-0.1,2.9,0.1,5.6,0.5,8.1C297.1,413.8,297.8,416.1,298.9,418.1z"/>
		</g>
		<g enable-background="new    ">
			<path fill="#39BFC2" d="M404.6,427.5v5c-0.1,0-1.1,0.3-3,0.9c-1.9,0.6-4.5,0.7-7.7,0.5c-2-0.2-3.4-0.6-4.3-1.5
				c-0.9-0.8-1.5-1.8-1.8-2.7c-1,1.1-2,2-3,2.6c-1,0.6-2,1.1-3.1,1.4c-1.1,0.3-2.3,0.5-3.6,0.6c-1.3,0.1-2.8,0.2-4.5,0.2
				c-7.7,0.2-13.3-1.1-16.7-3.7c-3.5-2.6-5.2-6.9-5.2-12.8v-35.8h-6.6v-5.6c0.8-0.7,1.7-1.3,2.7-1.9c0.9-0.5,2-0.9,3.3-1.3
				c1.3-0.4,2.8-0.6,4.5-0.6c2.1,0,3.7,0.6,4.7,1.7c1,1.1,1.6,2.2,1.8,3.3c0,0.2,0,0.5,0.1,0.9c0,0.3,0.1,0.7,0.1,1.1v35.3
				c0,3.6,0.9,6,2.8,7.4c1.9,1.3,4.6,2.1,8.1,2.2c1.4,0.1,2.8,0.1,3.9,0.1c1.2,0,2.3-0.1,3.4-0.3c1.1-0.2,2.2-0.4,3.3-0.6
				c1.1-0.3,2.3-0.6,3.7-0.9v-45.2c0-1.8,0.2-2.9,0.6-3.4c0.4-0.5,1.2-0.7,2.5-0.7h4.6c1.4,0,2.2,0.2,2.6,0.7
				c0.3,0.5,0.5,1.6,0.5,3.4l-0.1,20.3v29.5H404.6z"/>
		</g>
		<g enable-background="new    ">
			<path fill="#39BFC2" d="M422.5,427.6h6.5v5c-0.1,0-1.1,0.3-3,0.9c-1.9,0.6-4.5,0.7-7.7,0.5c-1.8-0.2-3.2-0.6-4.1-1.4
				c-0.9-0.8-1.5-1.6-1.8-2.5c-0.3-0.9-0.5-2-0.5-3.5v-78.6c0-1,0.1-1.8,0.2-2.3s0.3-1,0.7-1.3c0.3-0.3,0.9-0.4,1.5-0.5
				c0.7,0,1.6-0.1,2.6-0.1c1.3,0,2.3,0,3,0.1c0.7,0,1.3,0.2,1.7,0.4c0.4,0.2,0.6,0.6,0.7,1.2s0.2,1.4,0.2,2.5V427.6z"/>
		</g>
		<g enable-background="new    ">
			<path fill="#39BFC2" d="M454.5,434.3c-1.4-0.2-2.6-0.4-3.8-0.7c-1.1-0.3-2.2-0.7-3.1-1.1c-4.6-2.1-8-5.6-10.3-10.5
				c-2.3-4.9-3.5-10.7-3.5-17.5c0-4.4,0.6-8.5,1.9-12.3c1.3-3.8,2.9-7,4.9-9.7c2.1-2.7,4.2-4.6,6.5-5.7c2.3-1.1,4.3-1.9,5.9-2.3
				c2.6-0.7,5.5-1,8.7-1c2.7,0,4.9,0.1,6.6,0.3c1.8,0.2,3.6,1.4,5.6,3.7v-29.1c0-1,0.1-1.8,0.2-2.3s0.3-1,0.7-1.3
				c0.3-0.3,0.9-0.4,1.5-0.5c0.7,0,1.6-0.1,2.6-0.1c1.3,0,2.3,0,3,0.1c0.7,0,1.3,0.2,1.7,0.4c0.4,0.2,0.6,0.6,0.7,1.2
				s0.2,1.4,0.2,2.5v79.5h6.5v5c-0.1,0-1.1,0.3-3,0.9c-1.9,0.6-4.5,0.7-7.7,0.5c-2.1-0.2-3.6-0.7-4.5-1.7c-0.9-1-1.4-1.9-1.7-2.9
				c-1,0.5-2,1-3,1.5s-2.1,0.9-3.1,1.4c-3.2,1.3-6.8,1.9-10.7,1.9c-0.5,0-1,0-1.5,0S454.9,434.3,454.5,434.3z M456.4,425.5
				c1,0.2,2.5,0.2,4.5,0.1c2-0.1,4.3-0.7,6.8-1.8c2.7-1.1,4.8-2.2,6.3-3.2v-36.9c-1.8-0.5-3.7-0.8-5.5-1.1c-1.8-0.3-4.2-0.4-7-0.4
				c-1.8,0-3.4,0.2-4.7,0.6c-1.3,0.4-2.4,0.8-3.1,1.1c-1.8,1.1-3.4,2.6-4.9,4.7c-1.4,2.1-2.5,4.5-3.1,7.2c-0.7,2.9-1,6.8-0.9,11.7
				c0.2,5.2,1.3,9.5,3.3,12.9C449.7,423.1,452.4,424.8,456.4,425.5z"/>
		</g>
		<g enable-background="new    ">
			<path fill="#39BFC2" d="M516.8,434.3c-1.4-0.2-2.6-0.4-3.8-0.7c-1.1-0.3-2.2-0.7-3.1-1.1c-4.6-2.1-8-5.6-10.3-10.5
				c-2.3-4.9-3.5-10.7-3.5-17.5c0-4.4,0.6-8.5,1.9-12.3c1.3-3.8,2.9-7,4.9-9.7c2.1-2.7,4.2-4.6,6.5-5.7c2.3-1.1,4.3-1.9,5.9-2.3
				c2.6-0.7,5.5-1,8.7-1c2.7,0,4.9,0.1,6.6,0.3c1.8,0.2,3.6,1.4,5.6,3.7c0-1,0.1-1.8,0.2-2.3c0.1-0.6,0.3-1,0.7-1.3
				c0.3-0.3,0.9-0.4,1.5-0.5c0.7,0,1.6-0.1,2.6-0.1c1.3,0,2.3,0,3,0.1c0.7,0,1.3,0.2,1.7,0.4c0.4,0.2,0.6,0.6,0.7,1.2
				c0.1,0.6,0.2,1.4,0.2,2.5v50.4h6.5v5c-0.1,0-1.1,0.3-3,0.9c-1.9,0.6-4.5,0.7-7.7,0.5c-2.1-0.2-3.6-0.7-4.5-1.7
				c-0.9-1-1.4-1.9-1.7-2.9c-1,0.5-2,1-3,1.5c-1,0.5-2.1,0.9-3.1,1.4c-3.2,1.3-6.8,1.9-10.7,1.9c-0.5,0-1,0-1.5,0
				S517.2,434.3,516.8,434.3z M518.7,425.5c1,0.2,2.5,0.2,4.5,0.1c2-0.1,4.3-0.7,6.8-1.8c2.7-1.1,4.8-2.2,6.3-3.2v-36.9
				c-1.8-0.5-3.7-0.8-5.5-1.1c-1.8-0.3-4.2-0.4-7-0.4c-1.8,0-3.4,0.2-4.7,0.6c-1.3,0.4-2.4,0.8-3.1,1.1c-1.8,1.1-3.4,2.6-4.9,4.7
				c-1.4,2.1-2.5,4.5-3.1,7.2c-0.7,2.9-1,6.8-0.9,11.7c0.2,5.2,1.3,9.5,3.3,12.9C512,423.1,514.8,424.8,518.7,425.5z"/>
		</g>
	</g>
</g>
<g id="Layer_2" display="none">
</g>
</svg>
