<?xml version="1.0" encoding="utf-8"?>
<!-- Generator: Adobe Illustrator 17.1.0, SVG Export Plug-In . SVG Version: 6.00 Build 0)  -->
<!DOCTYPE svg PUBLIC "-//W3C//DTD SVG 1.1//EN" "http://www.w3.org/Graphics/SVG/1.1/DTD/svg11.dtd">
<svg version="1.1" xmlns="http://www.w3.org/2000/svg" xmlns:xlink="http://www.w3.org/1999/xlink" x="0px" y="0px"
	 viewBox="0 0 108 108" enable-background="new 0 0 108 108" xml:space="preserve">
<g id="Layer_1">
	<polygon fill="#F15F30" points="108.7,-0.7 1.3,-0.7 108.7,106.7 	"/>
	<g>
		<path fill="#FFFFFF" d="M70.7,39.7c-0.9-0.6-1-1.5-0.3-2.4l5.5-7.1v-0.1l-8.6-2.5c-1.1-0.3-1.5-1.1-1.1-2.1l0.3-1
			c0.4-1.1,1.1-1.5,2.2-1.1l8.5,3l-0.3-9c-0.1-1.1,0.5-1.8,1.6-1.8h1.3c1.1,0,1.8,0.6,1.6,1.8l-0.3,9l8.5-3c1-0.4,1.8,0,2.2,1.1
			l0.3,1c0.4,1,0,1.8-1.1,2.1l-8.6,2.5v0.1l5.5,7c0.6,0.9,0.6,1.8-0.3,2.5l-0.8,0.6c-1,0.7-1.8,0.6-2.5-0.4l-5-7.4H79l-5,7.4
			c-0.7,0.9-1.5,1.1-2.5,0.4L70.7,39.7z"/>
	</g>
</g>
<g id="Layer_2" display="none">
</g>
</svg>
